<?xml version="1.0" encoding="UTF-8" standalone="no"?>
<svg
   width="2500"
   height="780"
   viewBox="329.775 439.999 320.426 100.002"
   version="1.1"
   id="svg223"
   sodipodi:docname="airbnb copy.svg"
   inkscape:version="1.2 (dc2aeda, 2022-05-15)"
   xmlns:inkscape="http://www.inkscape.org/namespaces/inkscape"
   xmlns:sodipodi="http://sodipodi.sourceforge.net/DTD/sodipodi-0.dtd"
   xmlns="http://www.w3.org/2000/svg"
   xmlns:svg="http://www.w3.org/2000/svg">
  <defs
     id="defs227" />
  <sodipodi:namedview
     id="namedview225"
     pagecolor="#ffffff"
     bordercolor="#000000"
     borderopacity="0.25"
     inkscape:showpageshadow="2"
     inkscape:pageopacity="0.0"
     inkscape:pagecheckerboard="0"
     inkscape:deskcolor="#d1d1d1"
     showgrid="false"
     inkscape:zoom="0.3025641"
     inkscape:cx="1249.322"
     inkscape:cy="390"
     inkscape:window-width="1309"
     inkscape:window-height="456"
     inkscape:window-x="0"
     inkscape:window-y="25"
     inkscape:window-maximized="0"
     inkscape:current-layer="svg223" />
  <path
     d="m 398.21984,449.8433 h -52.32626 c -7.20658,0 -13.10765,5.94529 -13.10765,13.32377 V 516.303 c 0,7.37853 5.90107,13.32382 13.10765,13.32382 h 52.274 c 7.25884,0 13.10769,-5.99838 13.10769,-13.32382 v -53.13593 c 0.0522,-7.37848 -5.79663,-13.32377 -13.05543,-13.32377 z m -1.14889,61.09836 c 0,2.33564 -1.88,4.19355 -4.12553,4.19355 h -41.72521 c -2.29775,0 -4.12552,-1.91099 -4.12552,-4.19355 v -42.36013 c 0,-2.33563 1.87999,-4.19354 4.12552,-4.19354 h 41.673 c 2.29774,0 4.12552,1.91099 4.12552,4.19354 v 42.36013 z M 363.70123,500.5905 c -1.30554,0 -2.40222,-1.06167 -2.40222,-2.44182 v -16.88032 c 0,-1.32708 1.04446,-2.44183 2.40222,-2.44183 h 16.65873 c 1.30555,0 2.40222,1.06167 2.40222,2.44183 v 16.93339 c 0,1.32708 -1.04445,2.44184 -2.40222,2.44184 z m 68.46272,-1.16783 h 8.56438 c 0.4178,4.93671 3.70778,8.81176 10.33992,8.81176 5.95328,0 9.55658,-2.97266 9.55658,-7.48468 0,-4.19354 -2.87219,-6.10453 -7.9899,-7.32544 l -6.63218,-1.43324 c -7.20662,-1.59248 -12.63768,-6.31685 -12.63768,-14.01386 0,-8.49329 7.41549,-14.33238 17.07651,-14.33238 10.23546,0 16.81542,5.46754 17.38986,13.53615 h -8.30324 c -0.99224,-3.76891 -4.07331,-5.99838 -9.08662,-5.99838 -5.27436,0 -8.92992,2.91954 -8.92992,6.63537 0,3.71579 3.13332,5.94525 8.56439,7.16617 l 6.57996,1.43324 c 7.20658,1.59246 12.16763,6.05145 12.16763,13.80154 0,9.87339 -7.31102,15.7656 -17.70318,15.7656 -11.74988,-0.053 -18.22536,-6.52921 -18.95651,-16.56185 z m 67.31391,30.25723 v -14.43853 l 0.5744,-6.31686 h -0.5744 c -1.98443,4.56511 -6.10995,7.06001 -11.69771,7.06001 -9.03436,0 -15.77097,-7.48468 -15.77097,-18.9506 0,-11.46586 6.73661,-18.95055 15.77097,-18.95055 5.53554,0 9.45215,2.65415 11.69771,6.74153 h 0.5744 v -6.05145 h 7.41551 v 50.95953 h -7.98991 z m 0.31324,-32.69905 c 0,-7.32542 -4.43884,-11.62515 -9.81769,-11.62515 -5.37884,0 -9.81771,4.29973 -9.81771,11.62515 0,7.32545 4.43887,11.62515 9.81771,11.62515 5.37885,0 9.81769,-4.2997 9.81769,-11.62515 z m 13.62987,3.7689 v -22.02938 h 7.98994 v 21.28622 c 0,5.78602 2.71553,8.54632 7.31106,8.54632 5.58772,0 9.24323,-4.08737 9.24323,-10.40423 v -19.42831 h 7.98994 v 36.46791 h -7.41549 v -7.53776 h -0.57437 c -1.77552,4.83054 -5.58772,8.28092 -11.54101,8.28092 -8.56435,0 -13.00322,-5.57369 -13.00322,-15.18169 z m 37.39079,4.2997 c 0,-6.8477 4.69997,-10.82891 13.05543,-11.30663 l 9.86995,-0.637 v -2.86646 c 0,-3.39731 -2.45444,-5.46753 -6.78884,-5.46753 -4.02109,0 -6.37104,2.07022 -6.99771,4.98977 h -7.98994 c 0.83554,-7.43161 6.89327,-11.67823 14.98765,-11.67823 9.19106,0 14.77877,3.98122 14.77877,11.67823 v 25.47977 h -7.4155 v -6.74153 h -0.57443 c -1.67109,4.51206 -5.16998,7.48468 -11.90659,7.48468 -6.47548,-0.053 -11.01879,-4.45898 -11.01879,-10.93507 z m 22.92538,-4.51206 v -1.91095 l -8.04217,0.58392 c -4.33439,0.2654 -6.31881,1.91095 -6.31881,5.2021 0,2.7603 2.24552,4.77745 5.37884,4.77745 5.69215,-0.053 8.98214,-3.71578 8.98214,-8.65252 z m 13.94318,14.70398 v -36.46792 h 7.41551 v 7.00693 h 0.57443 c 1.04446,-4.77746 4.64776,-7.00693 9.97438,-7.00693 h 3.65551 v 7.27232 h -4.54327 c -5.16997,0 -9.03439,3.39731 -9.03439,9.92652 v 19.21599 z m 58.17508,-16.77421 h -27.25976 c 0.41778,6.68845 5.06549,10.45735 10.18324,10.45735 4.3344,0 7.04993,-1.80483 8.61661,-4.77746 h 7.93768 c -2.19331,7.43157 -8.56435,11.73132 -16.60651,11.73132 -10.60103,0 -18.01652,-8.0686 -18.01652,-18.95061 0,-10.88199 7.62441,-18.95055 18.06874,-18.95055 10.49656,0 17.38987,7.32541 17.38987,16.45569 -0.0522,1.85786 -0.20895,2.7603 -0.31323,4.03426 z m -7.67659,-5.62677 c -0.26109,-5.04286 -4.43887,-8.49325 -9.45215,-8.49325 -4.75218,0 -8.77325,3.07879 -9.76545,8.49325 z"
     id="path121"
     style="stroke-width:0.526507" />
</svg>
