<svg xmlns="http://www.w3.org/2000/svg" xmlns:xlink="http://www.w3.org/1999/xlink" width="800" zoomAndPan="magnify" viewBox="0 0 600 269.999989" height="360" preserveAspectRatio="xMidYMid meet" version="1.0"><defs><clipPath id="65a6aec598"><path d="M 9.003906 43 L 598 43 L 598 215 L 9.003906 215 Z M 9.003906 43 " clip-rule="nonzero"/></clipPath><clipPath id="9af3b15ef6"><path d="M 31 96.714844 L 582 96.714844 L 582 175 L 31 175 Z M 31 96.714844 " clip-rule="nonzero"/></clipPath><clipPath id="631c5fa708"><path d="M 24.101562 165 L 210 165 L 210 208 L 24.101562 208 Z M 24.101562 165 " clip-rule="nonzero"/></clipPath><clipPath id="97afa3416b"><path d="M 456 152 L 541 152 L 541 235 L 456 235 Z M 456 152 " clip-rule="nonzero"/></clipPath><clipPath id="500d86d121"><path d="M 500.828125 128.746094 L 560.261719 179.261719 L 499.542969 250.695312 L 440.113281 200.179688 Z M 500.828125 128.746094 " clip-rule="nonzero"/></clipPath><clipPath id="0531fe7504"><path d="M 500.828125 128.746094 L 560.261719 179.261719 L 499.542969 250.695312 L 440.113281 200.179688 Z M 500.828125 128.746094 " clip-rule="nonzero"/></clipPath></defs><g clip-path="url(#65a6aec598)"><path fill="#008037" d="M 8.992188 151.585938 C 8.992188 153.554688 9.152344 155.507812 9.46875 157.449219 C 9.78125 159.390625 10.253906 161.292969 10.878906 163.160156 C 11.5 165.023438 12.269531 166.828125 13.183594 168.566406 C 14.101562 170.308594 15.148438 171.964844 16.332031 173.535156 C 17.515625 175.105469 18.816406 176.570312 20.234375 177.929688 C 21.65625 179.289062 23.175781 180.527344 24.792969 181.640625 C 26.414062 182.753906 28.109375 183.730469 29.886719 184.570312 C 31.664062 185.410156 33.5 186.097656 35.386719 186.640625 C 34.335938 164.335938 35.882812 137.027344 44.292969 130.375 C 74.574219 116.253906 105.847656 104.878906 138.117188 96.246094 C 180.867188 83.613281 241.082031 68.507812 285.214844 68.507812 C 295.519531 68.292969 305.664062 69.457031 315.648438 71.992188 C 344.265625 80.074219 371.570312 91.339844 397.558594 105.796875 C 405.730469 111.558594 414.621094 115.824219 424.226562 118.597656 L 428.621094 121.859375 C 522.40625 126.964844 572.398438 156.597656 576.992188 168.640625 C 578.4375 176.21875 579.15625 183.867188 579.15625 191.585938 C 579.15625 199.300781 578.4375 206.949219 576.992188 214.527344 C 577.730469 214.351562 578.460938 214.136719 579.175781 213.886719 C 579.890625 213.632812 580.59375 213.34375 581.277344 213.015625 C 581.964844 212.691406 582.628906 212.328125 583.277344 211.929688 C 583.921875 211.535156 584.546875 211.105469 585.148438 210.640625 C 585.75 210.175781 586.328125 209.683594 586.875 209.160156 C 587.425781 208.632812 587.945312 208.082031 588.4375 207.503906 C 588.929688 206.921875 589.386719 206.320312 589.816406 205.691406 C 590.242188 205.0625 590.636719 204.414062 590.996094 203.746094 C 591.351562 203.074219 591.675781 202.390625 591.960938 201.683594 C 592.25 200.980469 592.496094 200.265625 592.707031 199.535156 C 592.917969 198.804688 593.089844 198.066406 593.222656 197.316406 C 593.351562 196.566406 593.445312 195.816406 593.5 195.058594 C 593.550781 194.296875 593.5625 193.539062 593.535156 192.78125 C 593.507812 192.019531 593.441406 191.265625 593.332031 190.511719 C 593.226562 189.761719 593.078125 189.015625 592.894531 188.28125 C 592.707031 187.542969 592.484375 186.816406 592.21875 186.105469 C 593.09375 184.734375 593.867188 183.308594 594.550781 181.832031 C 595.230469 180.355469 595.8125 178.839844 596.292969 177.289062 C 596.769531 175.734375 597.144531 174.15625 597.410156 172.550781 C 597.679688 170.949219 597.839844 169.332031 597.890625 167.707031 C 597.945312 166.082031 597.886719 164.460938 597.722656 162.84375 C 597.558594 161.226562 597.289062 159.625 596.910156 158.042969 C 596.53125 156.464844 596.050781 154.914062 595.464844 153.398438 C 594.878906 151.878906 594.195312 150.410156 593.414062 148.984375 C 592.632812 147.558594 591.757812 146.191406 590.792969 144.882812 C 589.828125 143.574219 588.78125 142.335938 587.652344 141.167969 C 586.523438 140 585.320312 138.914062 584.042969 137.90625 C 582.769531 136.898438 581.429688 135.980469 580.035156 135.152344 C 578.636719 134.324219 577.1875 133.59375 575.691406 132.957031 C 574.195312 132.324219 572.664062 131.792969 571.097656 131.363281 C 569.53125 130.933594 567.945312 130.613281 566.332031 130.394531 C 564.722656 130.179688 563.105469 130.070312 561.480469 130.070312 C 561.484375 129.003906 561.40625 127.941406 561.246094 126.882812 C 561.089844 125.828125 560.855469 124.789062 560.542969 123.769531 C 560.230469 122.75 559.84375 121.753906 559.386719 120.792969 C 558.925781 119.828125 558.398438 118.90625 557.800781 118.019531 C 557.203125 117.132812 556.546875 116.300781 555.824219 115.511719 C 555.105469 114.726562 554.328125 113.996094 553.5 113.324219 C 552.667969 112.65625 551.792969 112.046875 550.875 111.507812 C 549.957031 110.964844 549 110.496094 548.011719 110.097656 C 547.023438 109.699219 546.007812 109.375 544.972656 109.128906 C 543.933594 108.882812 542.882812 108.710938 541.820312 108.621094 C 540.757812 108.53125 539.695312 108.519531 538.628906 108.585938 C 537.566406 108.652344 536.511719 108.800781 535.46875 109.023438 C 534.425781 109.25 533.40625 109.546875 532.40625 109.925781 C 531.410156 110.300781 530.445312 110.75 529.515625 111.269531 C 528.582031 111.789062 527.695312 112.378906 526.851562 113.03125 C 526.007812 113.683594 525.214844 114.394531 524.476562 115.164062 C 523.628906 114.566406 522.753906 114.007812 521.859375 113.484375 C 520.960938 112.960938 520.042969 112.480469 519.105469 112.035156 C 518.167969 111.59375 517.214844 111.1875 516.242188 110.828125 C 515.269531 110.464844 514.28125 110.144531 513.28125 109.867188 C 512.28125 109.589844 511.273438 109.355469 510.253906 109.164062 C 509.234375 108.972656 508.207031 108.828125 507.175781 108.722656 C 506.144531 108.621094 505.109375 108.5625 504.070312 108.546875 C 503.035156 108.53125 501.996094 108.5625 500.960938 108.636719 C 499.925781 108.710938 498.898438 108.828125 497.875 108.992188 C 496.847656 109.152344 495.832031 109.359375 494.824219 109.609375 C 493.816406 109.859375 492.824219 110.148438 491.839844 110.484375 C 490.859375 110.816406 489.894531 111.195312 488.941406 111.609375 C 487.992188 112.027344 487.0625 112.484375 486.152344 112.980469 C 485.242188 113.480469 484.351562 114.015625 483.488281 114.585938 C 482.621094 115.160156 481.78125 115.769531 480.96875 116.414062 C 480.15625 117.058594 479.371094 117.738281 478.617188 118.449219 C 478 117.628906 477.351562 116.835938 476.671875 116.070312 C 475.992188 115.308594 475.277344 114.574219 474.535156 113.867188 C 473.792969 113.164062 473.019531 112.492188 472.21875 111.851562 C 471.421875 111.210938 470.59375 110.605469 469.742188 110.039062 C 468.894531 109.46875 468.019531 108.933594 467.125 108.4375 C 466.230469 107.941406 465.3125 107.484375 464.378906 107.066406 C 463.445312 106.648438 462.496094 106.269531 461.527344 105.929688 C 460.5625 105.589844 459.582031 105.292969 458.59375 105.035156 C 457.601562 104.78125 456.601562 104.566406 455.59375 104.394531 C 454.582031 104.222656 453.566406 104.09375 452.546875 104.007812 C 451.527344 103.921875 450.503906 103.878906 449.480469 103.878906 C 448.457031 103.878906 447.4375 103.921875 446.417969 104.007812 C 445.394531 104.09375 444.382812 104.222656 443.371094 104.394531 C 442.363281 104.566406 441.363281 104.78125 440.371094 105.039062 C 439.378906 105.296875 438.402344 105.59375 437.4375 105.933594 C 436.46875 106.269531 435.519531 106.648438 434.585938 107.070312 C 434.554688 106.320312 434.503906 105.574219 434.429688 104.828125 C 434.351562 104.085938 434.253906 103.34375 434.132812 102.605469 C 434.011719 101.867188 433.871094 101.132812 433.703125 100.402344 C 433.539062 99.671875 433.347656 98.949219 433.136719 98.230469 C 432.925781 97.511719 432.695312 96.800781 432.441406 96.097656 C 432.1875 95.394531 431.910156 94.699219 431.613281 94.011719 C 431.316406 93.324219 431 92.648438 430.660156 91.980469 C 430.320312 91.3125 429.960938 90.65625 429.582031 90.011719 C 429.203125 89.367188 428.804688 88.734375 428.386719 88.113281 C 427.96875 87.492188 427.53125 86.886719 427.074219 86.292969 C 426.621094 85.699219 426.148438 85.121094 425.65625 84.554688 C 425.164062 83.992188 424.65625 83.441406 424.132812 82.910156 C 423.609375 82.375 423.066406 81.859375 422.511719 81.359375 C 421.953125 80.859375 421.382812 80.378906 420.796875 79.914062 C 420.210938 79.449219 419.609375 79 418.996094 78.574219 C 418.382812 78.148438 417.757812 77.738281 417.117188 77.347656 C 416.476562 76.960938 415.828125 76.589844 415.167969 76.242188 C 414.503906 75.894531 413.832031 75.566406 413.152344 75.257812 C 412.46875 74.949219 411.78125 74.664062 411.082031 74.398438 C 410.378906 74.132812 409.675781 73.890625 408.960938 73.667969 C 408.246094 73.449219 407.523438 73.25 406.796875 73.074219 C 406.070312 72.894531 405.339844 72.742188 404.605469 72.609375 C 403.867188 72.476562 403.128906 72.367188 402.386719 72.28125 C 401.644531 72.195312 400.898438 72.132812 400.152344 72.09375 C 399.40625 72.050781 398.660156 72.035156 397.910156 72.039062 C 397.164062 72.046875 396.417969 72.074219 395.671875 72.125 C 394.925781 72.175781 394.179688 72.253906 393.441406 72.347656 C 392.699219 72.445312 391.960938 72.566406 391.226562 72.710938 C 390.492188 72.851562 389.765625 73.019531 389.039062 73.207031 C 388.316406 73.394531 387.597656 73.605469 386.886719 73.835938 C 386.175781 74.070312 385.472656 74.324219 384.777344 74.597656 C 384.082031 74.875 383.398438 75.171875 382.71875 75.488281 C 382.617188 75.039062 382.496094 74.59375 382.363281 74.152344 C 382.230469 73.710938 382.082031 73.277344 381.921875 72.84375 C 381.757812 72.414062 381.582031 71.988281 381.394531 71.566406 C 381.207031 71.144531 381.003906 70.730469 380.789062 70.324219 C 380.574219 69.917969 380.34375 69.515625 380.105469 69.125 C 379.863281 68.730469 379.609375 68.347656 379.34375 67.972656 C 379.078125 67.59375 378.800781 67.226562 378.511719 66.867188 C 378.222656 66.511719 377.921875 66.160156 377.609375 65.820312 C 377.296875 65.484375 376.976562 65.152344 376.640625 64.835938 C 376.308594 64.515625 375.96875 64.210938 375.613281 63.914062 C 375.261719 63.617188 374.898438 63.332031 374.527344 63.058594 C 374.15625 62.785156 373.777344 62.523438 373.390625 62.277344 C 373.003906 62.027344 372.609375 61.792969 372.207031 61.566406 C 371.804688 61.34375 371.394531 61.132812 370.976562 60.9375 C 370.5625 60.742188 370.136719 60.558594 369.710938 60.386719 C 369.28125 60.21875 368.847656 60.0625 368.410156 59.917969 C 367.972656 59.777344 367.53125 59.648438 367.085938 59.535156 C 366.636719 59.421875 366.1875 59.324219 365.738281 59.238281 C 365.285156 59.15625 364.828125 59.085938 364.371094 59.027344 C 363.914062 58.972656 363.457031 58.933594 362.996094 58.90625 C 362.535156 58.882812 362.078125 58.871094 361.617188 58.875 C 361.15625 58.878906 360.695312 58.898438 360.238281 58.929688 C 359.777344 58.964844 359.320312 59.011719 358.863281 59.074219 C 358.40625 59.136719 357.953125 59.214844 357.503906 59.304688 C 357.050781 59.398438 356.605469 59.503906 356.160156 59.625 C 355.714844 59.746094 355.273438 59.882812 354.839844 60.03125 C 354.402344 60.179688 353.972656 60.34375 353.546875 60.519531 C 353.121094 60.695312 352.703125 60.886719 352.289062 61.089844 C 351.878906 61.292969 351.472656 61.511719 351.074219 61.738281 C 350.671875 61.96875 350.28125 62.210938 349.898438 62.46875 C 349.515625 62.722656 349.140625 62.988281 348.773438 63.269531 C 348.40625 63.546875 348.050781 63.839844 347.703125 64.140625 C 346.941406 62.613281 346.082031 61.148438 345.117188 59.742188 C 344.152344 58.339844 343.09375 57.007812 341.945312 55.753906 C 340.792969 54.496094 339.558594 53.324219 338.246094 52.242188 C 336.929688 51.160156 335.546875 50.171875 334.09375 49.285156 C 332.640625 48.394531 331.132812 47.613281 329.570312 46.9375 C 328.007812 46.257812 326.402344 45.695312 324.761719 45.242188 C 323.121094 44.789062 321.453125 44.453125 319.765625 44.238281 C 318.078125 44.019531 316.378906 43.917969 314.679688 43.941406 C 312.976562 43.960938 311.28125 44.097656 309.597656 44.355469 C 307.914062 44.613281 306.257812 44.988281 304.628906 45.476562 C 302.996094 45.96875 301.40625 46.570312 299.859375 47.285156 C 298.316406 47.996094 296.824219 48.816406 295.394531 49.738281 C 293.960938 50.660156 292.601562 51.679688 291.3125 52.792969 C 290.023438 53.90625 288.816406 55.105469 287.695312 56.386719 C 286.574219 57.671875 285.546875 59.027344 284.617188 60.453125 C 283.6875 61.878906 282.859375 63.367188 282.136719 64.910156 C 280.589844 64.007812 278.988281 63.222656 277.328125 62.554688 C 275.667969 61.890625 273.96875 61.347656 272.230469 60.933594 C 270.488281 60.519531 268.730469 60.234375 266.945312 60.078125 C 265.164062 59.921875 263.382812 59.898438 261.597656 60.003906 C 259.8125 60.113281 258.042969 60.351562 256.292969 60.71875 C 254.542969 61.085938 252.832031 61.582031 251.152344 62.203125 C 249.476562 62.824219 247.851562 63.566406 246.285156 64.425781 C 244.71875 65.289062 243.21875 66.257812 241.796875 67.339844 C 241.136719 65.625 240.355469 63.972656 239.449219 62.375 C 238.542969 60.78125 237.519531 59.261719 236.386719 57.820312 C 235.25 56.378906 234.011719 55.03125 232.671875 53.777344 C 231.332031 52.523438 229.90625 51.378906 228.394531 50.339844 C 226.882812 49.300781 225.300781 48.382812 223.648438 47.582031 C 222 46.785156 220.296875 46.113281 218.546875 45.570312 C 216.792969 45.027344 215.011719 44.621094 213.195312 44.347656 C 211.382812 44.074219 209.558594 43.941406 207.726562 43.945312 C 205.890625 43.945312 204.070312 44.089844 202.257812 44.367188 C 200.445312 44.644531 198.660156 45.058594 196.910156 45.605469 C 195.160156 46.15625 193.460938 46.832031 191.8125 47.636719 C 190.164062 48.441406 188.585938 49.367188 187.078125 50.410156 C 185.570312 51.453125 184.148438 52.605469 182.8125 53.863281 C 181.476562 55.121094 180.246094 56.472656 179.113281 57.917969 C 177.984375 59.363281 176.964844 60.886719 176.066406 62.484375 C 175.164062 64.082031 174.386719 65.738281 173.734375 67.457031 C 172.945312 67.402344 172.160156 67.371094 171.371094 67.371094 C 169.542969 67.371094 167.722656 67.511719 165.914062 67.785156 C 164.109375 68.058594 162.332031 68.464844 160.585938 69.007812 C 158.839844 69.550781 157.140625 70.21875 155.496094 71.015625 C 153.851562 71.816406 152.273438 72.730469 150.765625 73.765625 C 149.257812 74.800781 147.835938 75.941406 146.5 77.191406 C 145.164062 78.441406 143.929688 79.785156 142.792969 81.21875 C 141.660156 82.652344 140.640625 84.167969 139.730469 85.753906 C 138.824219 87.34375 138.042969 88.992188 137.382812 90.699219 C 136.507812 90.105469 135.597656 89.574219 134.648438 89.113281 C 133.699219 88.652344 132.71875 88.265625 131.710938 87.949219 C 130.703125 87.632812 129.675781 87.390625 128.632812 87.226562 C 127.589844 87.0625 126.542969 86.972656 125.484375 86.964844 C 124.429688 86.953125 123.378906 87.023438 122.332031 87.167969 C 121.285156 87.3125 120.257812 87.535156 119.242188 87.832031 C 118.230469 88.128906 117.242188 88.5 116.285156 88.945312 C 115.324219 89.386719 114.40625 89.898438 113.519531 90.480469 C 113.03125 89.609375 112.503906 88.761719 111.941406 87.9375 C 111.378906 87.109375 110.785156 86.308594 110.160156 85.535156 C 109.53125 84.757812 108.875 84.007812 108.183594 83.285156 C 107.496094 82.5625 106.78125 81.867188 106.035156 81.207031 C 105.289062 80.542969 104.515625 79.910156 103.71875 79.308594 C 102.921875 78.710938 102.101562 78.144531 101.257812 77.609375 C 100.414062 77.078125 99.550781 76.582031 98.664062 76.121094 C 97.78125 75.660156 96.878906 75.234375 95.957031 74.847656 C 95.039062 74.460938 94.105469 74.109375 93.15625 73.800781 C 92.207031 73.488281 91.25 73.21875 90.277344 72.988281 C 89.308594 72.753906 88.328125 72.566406 87.34375 72.414062 C 86.355469 72.261719 85.367188 72.152344 84.371094 72.082031 C 83.375 72.011719 82.378906 71.984375 81.382812 71.996094 C 80.386719 72.007812 79.390625 72.0625 78.394531 72.15625 C 77.402344 72.25 76.414062 72.386719 75.433594 72.5625 C 74.453125 72.738281 73.476562 72.953125 72.515625 73.210938 C 71.550781 73.464844 70.597656 73.757812 69.65625 74.09375 C 68.714844 74.425781 67.792969 74.800781 66.882812 75.210938 C 65.972656 75.621094 65.082031 76.066406 64.207031 76.550781 C 63.335938 77.035156 62.484375 77.550781 61.652344 78.105469 C 60.824219 78.660156 60.015625 79.246094 59.234375 79.867188 C 58.453125 80.484375 57.695312 81.136719 56.96875 81.816406 C 56.238281 82.5 55.539062 83.210938 54.867188 83.949219 C 54.199219 84.691406 53.558594 85.457031 52.953125 86.246094 C 52.34375 87.039062 51.769531 87.855469 51.230469 88.695312 C 50.6875 89.535156 50.183594 90.394531 49.714844 91.273438 C 49.242188 92.15625 48.8125 93.054688 48.414062 93.972656 C 48.019531 94.886719 47.660156 95.820312 47.339844 96.765625 C 47.019531 97.710938 46.742188 98.667969 46.5 99.636719 C 46.257812 100.605469 46.058594 101.582031 45.894531 102.570312 C 45.734375 103.554688 45.613281 104.546875 45.535156 105.539062 C 45.457031 106.535156 45.417969 107.535156 45.417969 108.53125 C 45.421875 110.753906 45.621094 112.957031 46.019531 115.144531 L 45.417969 115.144531 C 44.226562 115.144531 43.039062 115.203125 41.851562 115.320312 C 40.664062 115.433594 39.484375 115.609375 38.316406 115.84375 C 37.144531 116.074219 35.992188 116.367188 34.847656 116.710938 C 33.707031 117.058594 32.585938 117.460938 31.484375 117.917969 C 30.382812 118.375 29.304688 118.882812 28.253906 119.445312 C 27.203125 120.007812 26.179688 120.621094 25.1875 121.285156 C 24.195312 121.945312 23.238281 122.65625 22.316406 123.414062 C 21.394531 124.171875 20.511719 124.972656 19.667969 125.816406 C 18.824219 126.660156 18.023438 127.542969 17.269531 128.464844 C 16.511719 129.386719 15.800781 130.347656 15.136719 131.339844 C 14.476562 132.332031 13.863281 133.351562 13.300781 134.40625 C 12.738281 135.457031 12.226562 136.535156 11.769531 137.640625 C 11.3125 138.742188 10.914062 139.863281 10.566406 141.007812 C 10.21875 142.148438 9.929688 143.304688 9.695312 144.476562 C 9.460938 145.648438 9.285156 146.828125 9.167969 148.015625 C 9.050781 149.203125 8.992188 150.394531 8.992188 151.585938 Z M 8.992188 151.585938 " fill-opacity="1" fill-rule="nonzero"/></g><path fill="#ffffff" d="M 402.871094 218.339844 C 402.871094 218.339844 385.359375 220.097656 377.800781 221.210938 L 404.574219 221.210938 C 412.734375 162.964844 453.566406 168.902344 491.226562 171.734375 C 528.882812 174.566406 518.273438 222.550781 518.273438 230.476562 L 547.539062 227.316406 C 556.613281 226.84375 570.738281 225.507812 572.207031 221.832031 C 574.394531 216.378906 578.632812 181.566406 574.101562 169.757812 C 569.570312 157.945312 492.078125 112.679688 342.414062 126.765625 C 350.246094 126.765625 411.535156 131.089844 469.164062 140.3125 C 468.285156 139.832031 467.34375 139.59375 466.34375 139.597656 C 466.734375 139.597656 467.117188 139.558594 467.5 139.484375 C 467.882812 139.40625 468.25 139.296875 468.609375 139.144531 C 468.972656 138.996094 469.3125 138.816406 469.636719 138.597656 C 469.960938 138.382812 470.257812 138.136719 470.535156 137.863281 C 470.808594 137.585938 471.054688 137.289062 471.273438 136.964844 C 471.488281 136.640625 471.671875 136.296875 471.820312 135.9375 C 471.96875 135.578125 472.082031 135.207031 472.160156 134.828125 C 472.234375 134.445312 472.273438 134.058594 472.273438 133.671875 C 472.273438 134.058594 472.3125 134.445312 472.390625 134.828125 C 472.464844 135.207031 472.578125 135.578125 472.726562 135.9375 C 472.875 136.296875 473.058594 136.640625 473.273438 136.964844 C 473.488281 137.285156 473.734375 137.585938 474.007812 137.859375 C 474.285156 138.136719 474.582031 138.382812 474.90625 138.597656 C 475.230469 138.8125 475.570312 138.996094 475.929688 139.144531 C 476.289062 139.292969 476.660156 139.40625 477.039062 139.484375 C 477.421875 139.558594 477.808594 139.597656 478.195312 139.597656 C 476.671875 139.59375 475.347656 140.105469 474.21875 141.132812 C 519.261719 148.597656 561.007812 159.09375 571.777344 172.902344 C 571.992188 187.75 571.253906 202.546875 569.558594 217.296875 L 545.308594 224.484375 C 536.507812 225.539062 523.226562 227.550781 523.226562 227.011719 C 530.585938 168.199219 511.855469 166.3125 459.257812 165.347656 C 407.378906 164.378906 402.871094 218.339844 402.871094 218.339844 Z M 402.871094 218.339844 " fill-opacity="1" fill-rule="nonzero"/><path fill="#ffffff" d="M 46.21875 132.816406 C 57.710938 123.734375 247.652344 55.972656 314.808594 74.992188 C 381.964844 94.015625 406.496094 119.058594 425.511719 120.628906 C 415.226562 122.523438 378.851562 106.3125 349.742188 95.878906 C 306.625 80.4375 202.109375 87.066406 144.269531 110.910156 C 86.433594 134.753906 62.097656 137.660156 56.199219 137.660156 C 50.300781 137.660156 47.3125 152.167969 47.3125 161.703125 C 47.3125 161.894531 47.3125 162.09375 47.3125 162.304688 C 51.003906 170.503906 55.523438 178.21875 60.871094 185.445312 C 66.21875 192.671875 72.277344 199.246094 79.039062 205.167969 C 87.285156 154.925781 116.898438 144.113281 159.371094 143.722656 C 202.929688 143.261719 204.136719 176.726562 210.488281 193.980469 C 216.839844 211.234375 287.160156 212.820312 303.03125 216.683594 C 303.03125 216.683594 223.632812 220.316406 210.488281 208.96875 C 197.34375 197.621094 216.390625 151.28125 156.5 150.808594 C 100.839844 150.355469 87.503906 188.808594 85.894531 209.558594 C 93.65625 213.527344 88.292969 220.433594 88.292969 229.707031 C 77.671875 229.707031 46.890625 225.496094 42.359375 214.875 C 37.828125 204.253906 34.726562 141.902344 46.21875 132.816406 Z M 46.21875 132.816406 " fill-opacity="1" fill-rule="nonzero"/><path fill="#008037" d="M 462.609375 73.332031 C 463.386719 73.332031 464.152344 73.40625 464.914062 73.558594 C 465.675781 73.707031 466.414062 73.933594 467.128906 74.230469 C 467.847656 74.527344 468.527344 74.890625 469.171875 75.324219 C 469.816406 75.753906 470.414062 76.242188 470.960938 76.792969 C 471.507812 77.339844 472 77.9375 472.429688 78.585938 C 472.859375 79.230469 473.222656 79.910156 473.519531 80.628906 C 473.816406 81.34375 474.042969 82.085938 474.191406 82.84375 C 474.34375 83.605469 474.421875 84.375 474.421875 85.152344 C 474.421875 85.929688 474.34375 86.695312 474.191406 87.457031 C 474.042969 88.21875 473.816406 88.957031 473.519531 89.675781 C 473.222656 90.394531 472.859375 91.074219 472.429688 91.71875 C 472 92.363281 471.507812 92.960938 470.960938 93.511719 C 470.414062 94.058594 469.816406 94.550781 469.171875 94.980469 C 468.527344 95.414062 467.847656 95.777344 467.128906 96.074219 C 466.414062 96.371094 465.675781 96.59375 464.914062 96.746094 C 464.152344 96.898438 463.386719 96.972656 462.609375 96.972656 C 461.835938 96.972656 461.066406 96.898438 460.308594 96.746094 C 459.546875 96.59375 458.808594 96.371094 458.089844 96.074219 C 457.375 95.777344 456.695312 95.414062 456.050781 94.980469 C 455.40625 94.550781 454.808594 94.058594 454.261719 93.511719 C 453.710938 92.960938 453.222656 92.363281 452.792969 91.71875 C 452.359375 91.074219 451.996094 90.394531 451.699219 89.675781 C 451.402344 88.957031 451.179688 88.21875 451.027344 87.457031 C 450.875 86.695312 450.800781 85.929688 450.800781 85.152344 C 450.800781 84.375 450.875 83.605469 451.027344 82.84375 C 451.179688 82.085938 451.402344 81.34375 451.699219 80.628906 C 451.996094 79.910156 452.359375 79.230469 452.792969 78.585938 C 453.222656 77.9375 453.710938 77.339844 454.261719 76.792969 C 454.808594 76.242188 455.40625 75.753906 456.050781 75.324219 C 456.695312 74.890625 457.375 74.527344 458.089844 74.230469 C 458.808594 73.933594 459.546875 73.707031 460.308594 73.558594 C 461.066406 73.40625 461.835938 73.332031 462.609375 73.332031 Z M 458.003906 93.859375 C 457.523438 93.464844 457.085938 93.035156 456.683594 92.5625 C 456.285156 92.09375 455.929688 91.589844 455.621094 91.050781 C 455.3125 90.515625 455.054688 89.957031 454.847656 89.371094 C 454.640625 88.789062 454.488281 88.191406 454.390625 87.578125 C 454.292969 86.96875 454.25 86.351562 454.265625 85.734375 C 454.28125 85.113281 454.351562 84.503906 454.476562 83.894531 C 454.601562 83.289062 454.78125 82.699219 455.015625 82.128906 C 455.25 81.554688 455.535156 81.007812 455.867188 80.484375 C 456.203125 79.964844 456.582031 79.476562 457.003906 79.023438 C 457.425781 78.574219 457.886719 78.164062 458.382812 77.796875 C 458.882812 77.425781 459.40625 77.105469 459.964844 76.835938 C 460.519531 76.5625 461.09375 76.34375 461.691406 76.179688 C 462.285156 76.011719 462.890625 75.902344 463.507812 75.84375 C 464.125 75.789062 464.742188 75.789062 465.355469 75.847656 C 465.972656 75.90625 466.578125 76.015625 467.171875 76.183594 C 467.769531 76.351562 468.34375 76.574219 468.898438 76.847656 C 468.34375 76.390625 467.75 75.996094 467.109375 75.667969 C 466.472656 75.339844 465.808594 75.078125 465.117188 74.890625 C 464.421875 74.703125 463.71875 74.589844 463 74.550781 C 462.285156 74.511719 461.574219 74.546875 460.863281 74.660156 C 460.15625 74.773438 459.464844 74.957031 458.796875 75.21875 C 458.125 75.476562 457.492188 75.800781 456.890625 76.195312 C 456.289062 76.589844 455.738281 77.039062 455.234375 77.550781 C 454.726562 78.0625 454.28125 78.617188 453.894531 79.222656 C 453.507812 79.828125 453.191406 80.46875 452.9375 81.140625 C 452.6875 81.8125 452.507812 82.503906 452.402344 83.214844 C 452.296875 83.925781 452.269531 84.640625 452.316406 85.359375 C 452.359375 86.074219 452.480469 86.777344 452.675781 87.46875 C 452.871094 88.160156 453.136719 88.824219 453.472656 89.460938 C 453.808594 90.09375 454.207031 90.6875 454.667969 91.238281 C 455.128906 91.789062 455.640625 92.285156 456.207031 92.726562 C 456.773438 93.167969 457.378906 93.542969 458.027344 93.859375 Z M 458.003906 93.859375 " fill-opacity="1" fill-rule="nonzero"/><path fill="#008037" d="M 413.699219 27.285156 C 414.476562 27.285156 415.242188 27.363281 416.003906 27.515625 C 416.765625 27.667969 417.503906 27.890625 418.21875 28.1875 C 418.933594 28.488281 419.613281 28.851562 420.257812 29.28125 C 420.902344 29.714844 421.5 30.207031 422.046875 30.753906 C 422.59375 31.304688 423.082031 31.902344 423.515625 32.546875 C 423.945312 33.191406 424.308594 33.875 424.605469 34.589844 C 424.898438 35.308594 425.125 36.046875 425.273438 36.808594 C 425.425781 37.570312 425.5 38.339844 425.5 39.113281 C 425.5 39.890625 425.421875 40.660156 425.273438 41.421875 C 425.121094 42.179688 424.894531 42.921875 424.597656 43.636719 C 424.300781 44.355469 423.9375 45.035156 423.507812 45.679688 C 423.074219 46.324219 422.585938 46.921875 422.039062 47.46875 C 421.488281 48.019531 420.890625 48.507812 420.246094 48.9375 C 419.601562 49.371094 418.921875 49.734375 418.207031 50.03125 C 417.488281 50.328125 416.75 50.550781 415.992188 50.703125 C 415.230469 50.855469 414.460938 50.929688 413.6875 50.929688 C 412.910156 50.929688 412.144531 50.851562 411.382812 50.703125 C 410.621094 50.550781 409.882812 50.324219 409.167969 50.027344 C 408.453125 49.730469 407.773438 49.367188 407.128906 48.933594 C 406.484375 48.503906 405.886719 48.015625 405.339844 47.464844 C 404.789062 46.917969 404.300781 46.320312 403.871094 45.675781 C 403.441406 45.027344 403.074219 44.347656 402.78125 43.628906 C 402.484375 42.914062 402.257812 42.175781 402.109375 41.414062 C 401.957031 40.652344 401.878906 39.882812 401.878906 39.105469 C 401.878906 38.332031 401.957031 37.5625 402.109375 36.800781 C 402.257812 36.039062 402.484375 35.296875 402.78125 34.582031 C 403.078125 33.863281 403.441406 33.183594 403.875 32.535156 C 404.304688 31.890625 404.792969 31.292969 405.34375 30.746094 C 405.890625 30.195312 406.488281 29.707031 407.132812 29.273438 C 407.78125 28.84375 408.460938 28.480469 409.179688 28.183594 C 409.894531 27.886719 410.632812 27.660156 411.394531 27.511719 C 412.15625 27.359375 412.925781 27.285156 413.699219 27.285156 Z M 409.09375 47.8125 C 408.617188 47.421875 408.179688 46.992188 407.777344 46.519531 C 407.378906 46.046875 407.027344 45.542969 406.71875 45.007812 C 406.410156 44.472656 406.152344 43.914062 405.949219 43.328125 C 405.742188 42.746094 405.589844 42.148438 405.492188 41.539062 C 405.398438 40.929688 405.355469 40.316406 405.371094 39.695312 C 405.386719 39.078125 405.457031 38.46875 405.582031 37.863281 C 405.707031 37.257812 405.890625 36.667969 406.121094 36.097656 C 406.355469 35.523438 406.640625 34.976562 406.972656 34.457031 C 407.304688 33.9375 407.683594 33.449219 408.105469 33 C 408.527344 32.546875 408.984375 32.136719 409.480469 31.769531 C 409.976562 31.402344 410.503906 31.082031 411.058594 30.808594 C 411.613281 30.539062 412.1875 30.320312 412.78125 30.152344 C 413.375 29.984375 413.980469 29.871094 414.59375 29.816406 C 415.210938 29.757812 415.824219 29.757812 416.4375 29.8125 C 417.054688 29.871094 417.660156 29.980469 418.253906 30.144531 C 418.847656 30.3125 419.425781 30.53125 419.980469 30.800781 C 419.425781 30.347656 418.828125 29.957031 418.191406 29.628906 C 417.554688 29.300781 416.890625 29.042969 416.195312 28.855469 C 415.503906 28.667969 414.800781 28.554688 414.085938 28.519531 C 413.371094 28.480469 412.660156 28.519531 411.949219 28.628906 C 411.242188 28.742188 410.554688 28.929688 409.886719 29.1875 C 409.21875 29.445312 408.585938 29.769531 407.984375 30.164062 C 407.386719 30.558594 406.832031 31.007812 406.328125 31.519531 C 405.824219 32.027344 405.378906 32.585938 404.992188 33.1875 C 404.605469 33.792969 404.289062 34.429688 404.035156 35.101562 C 403.785156 35.773438 403.605469 36.464844 403.5 37.171875 C 403.394531 37.882812 403.363281 38.597656 403.410156 39.3125 C 403.453125 40.027344 403.574219 40.730469 403.765625 41.421875 C 403.960938 42.113281 404.222656 42.773438 404.558594 43.410156 C 404.890625 44.042969 405.289062 44.636719 405.746094 45.1875 C 406.207031 45.738281 406.71875 46.234375 407.28125 46.679688 C 407.847656 47.121094 408.449219 47.5 409.09375 47.8125 Z M 409.09375 47.8125 " fill-opacity="1" fill-rule="nonzero"/><path fill="#008037" d="M 38.238281 96.953125 C 38.238281 97.730469 38.160156 98.496094 38.011719 99.257812 C 37.859375 100.019531 37.636719 100.757812 37.339844 101.476562 C 37.042969 102.195312 36.675781 102.875 36.246094 103.519531 C 35.816406 104.164062 35.328125 104.761719 34.777344 105.3125 C 34.230469 105.859375 33.632812 106.351562 32.988281 106.78125 C 32.34375 107.214844 31.664062 107.578125 30.945312 107.875 C 30.230469 108.171875 29.492188 108.394531 28.730469 108.546875 C 27.972656 108.699219 27.203125 108.773438 26.425781 108.773438 C 25.652344 108.773438 24.882812 108.699219 24.125 108.546875 C 23.363281 108.394531 22.625 108.171875 21.910156 107.875 C 21.191406 107.578125 20.511719 107.214844 19.867188 106.78125 C 19.222656 106.351562 18.625 105.859375 18.078125 105.3125 C 17.527344 104.761719 17.039062 104.164062 16.609375 103.519531 C 16.175781 102.875 15.8125 102.195312 15.515625 101.476562 C 15.21875 100.757812 14.996094 100.019531 14.84375 99.257812 C 14.695312 98.496094 14.617188 97.730469 14.617188 96.953125 C 14.617188 96.175781 14.695312 95.40625 14.84375 94.644531 C 14.996094 93.886719 15.21875 93.144531 15.515625 92.429688 C 15.8125 91.710938 16.175781 91.03125 16.609375 90.386719 C 17.039062 89.738281 17.527344 89.140625 18.078125 88.59375 C 18.625 88.042969 19.222656 87.554688 19.867188 87.125 C 20.511719 86.691406 21.191406 86.328125 21.910156 86.03125 C 22.625 85.734375 23.363281 85.507812 24.125 85.359375 C 24.882812 85.207031 25.652344 85.132812 26.425781 85.132812 C 27.203125 85.132812 27.972656 85.207031 28.730469 85.359375 C 29.492188 85.507812 30.230469 85.734375 30.945312 86.03125 C 31.664062 86.328125 32.34375 86.691406 32.988281 87.125 C 33.632812 87.554688 34.230469 88.042969 34.777344 88.59375 C 35.328125 89.140625 35.816406 89.738281 36.246094 90.386719 C 36.675781 91.03125 37.042969 91.710938 37.339844 92.429688 C 37.636719 93.144531 37.859375 93.886719 38.011719 94.644531 C 38.160156 95.40625 38.238281 96.175781 38.238281 96.953125 Z M 36.722656 96.53125 C 36.722656 95.570312 36.585938 94.628906 36.320312 93.703125 C 36.050781 92.78125 35.660156 91.914062 35.144531 91.101562 C 34.632812 90.289062 34.015625 89.5625 33.296875 88.925781 C 32.578125 88.289062 31.785156 87.761719 30.917969 87.351562 C 30.050781 86.9375 29.140625 86.652344 28.191406 86.5 C 27.246094 86.34375 26.292969 86.324219 25.339844 86.4375 C 24.386719 86.554688 23.46875 86.796875 22.582031 87.175781 C 21.699219 87.550781 20.882812 88.039062 20.140625 88.648438 C 20.695312 88.359375 21.273438 88.125 21.875 87.945312 C 22.472656 87.761719 23.085938 87.636719 23.710938 87.570312 C 24.332031 87.503906 24.957031 87.492188 25.582031 87.542969 C 26.207031 87.589844 26.820312 87.695312 27.425781 87.855469 C 28.03125 88.019531 28.617188 88.234375 29.183594 88.507812 C 29.75 88.777344 30.285156 89.097656 30.789062 89.464844 C 31.296875 89.835938 31.765625 90.25 32.195312 90.707031 C 32.625 91.164062 33.007812 91.65625 33.347656 92.183594 C 33.6875 92.710938 33.972656 93.265625 34.210938 93.847656 C 34.449219 94.425781 34.628906 95.023438 34.753906 95.640625 C 34.878906 96.253906 34.949219 96.875 34.960938 97.503906 C 34.96875 98.128906 34.925781 98.753906 34.820312 99.371094 C 34.714844 99.988281 34.554688 100.59375 34.339844 101.183594 C 34.125 101.769531 33.855469 102.335938 33.535156 102.875 C 33.214844 103.414062 32.847656 103.917969 32.433594 104.390625 C 32.023438 104.863281 31.570312 105.292969 31.074219 105.679688 C 31.925781 105.257812 32.699219 104.730469 33.402344 104.089844 C 34.101562 103.453125 34.703125 102.730469 35.203125 101.921875 C 35.699219 101.117188 36.078125 100.257812 36.339844 99.34375 C 36.597656 98.433594 36.726562 97.5 36.722656 96.550781 Z M 36.722656 96.53125 " fill-opacity="1" fill-rule="nonzero"/><path fill="#008037" d="M 135.617188 69.183594 C 135.617188 69.957031 135.539062 70.726562 135.386719 71.488281 C 135.238281 72.25 135.011719 72.988281 134.714844 73.707031 C 134.417969 74.421875 134.054688 75.105469 133.625 75.75 C 133.195312 76.394531 132.703125 76.992188 132.15625 77.542969 C 131.609375 78.089844 131.011719 78.582031 130.367188 79.011719 C 129.722656 79.441406 129.042969 79.808594 128.324219 80.105469 C 127.609375 80.402344 126.871094 80.625 126.109375 80.777344 C 125.347656 80.929688 124.582031 81.003906 123.804688 81.003906 C 123.03125 81.003906 122.261719 80.929688 121.503906 80.777344 C 120.742188 80.625 120.003906 80.402344 119.285156 80.105469 C 118.570312 79.808594 117.890625 79.441406 117.246094 79.011719 C 116.601562 78.582031 116.003906 78.089844 115.457031 77.542969 C 114.90625 76.992188 114.417969 76.394531 113.988281 75.75 C 113.554688 75.105469 113.191406 74.421875 112.894531 73.707031 C 112.597656 72.988281 112.375 72.25 112.222656 71.488281 C 112.070312 70.726562 111.996094 69.957031 111.996094 69.183594 C 111.996094 68.40625 112.070312 67.636719 112.222656 66.875 C 112.375 66.113281 112.597656 65.375 112.894531 64.660156 C 113.191406 63.941406 113.554688 63.261719 113.988281 62.613281 C 114.417969 61.96875 114.90625 61.371094 115.457031 60.824219 C 116.003906 60.273438 116.601562 59.785156 117.246094 59.351562 C 117.890625 58.921875 118.570312 58.558594 119.285156 58.261719 C 120.003906 57.964844 120.742188 57.738281 121.503906 57.589844 C 122.261719 57.4375 123.03125 57.359375 123.804688 57.359375 C 124.582031 57.359375 125.347656 57.4375 126.109375 57.589844 C 126.871094 57.738281 127.609375 57.964844 128.324219 58.261719 C 129.042969 58.558594 129.722656 58.921875 130.367188 59.351562 C 131.011719 59.785156 131.609375 60.273438 132.15625 60.824219 C 132.703125 61.371094 133.195312 61.96875 133.625 62.613281 C 134.054688 63.261719 134.417969 63.941406 134.714844 64.660156 C 135.011719 65.375 135.238281 66.113281 135.386719 66.875 C 135.539062 67.636719 135.617188 68.40625 135.617188 69.183594 Z M 134.113281 68.761719 C 134.109375 67.800781 133.976562 66.859375 133.707031 65.933594 C 133.4375 65.011719 133.046875 64.144531 132.535156 63.332031 C 132.019531 62.519531 131.40625 61.792969 130.683594 61.15625 C 129.964844 60.519531 129.171875 59.992188 128.304688 59.582031 C 127.4375 59.167969 126.53125 58.882812 125.582031 58.730469 C 124.632812 58.574219 123.683594 58.554688 122.730469 58.667969 C 121.777344 58.785156 120.855469 59.027344 119.972656 59.402344 C 119.089844 59.78125 118.273438 60.269531 117.527344 60.878906 C 118.082031 60.605469 118.65625 60.386719 119.253906 60.222656 C 119.847656 60.054688 120.453125 59.945312 121.066406 59.890625 C 121.683594 59.832031 122.296875 59.835938 122.914062 59.890625 C 123.527344 59.949219 124.132812 60.058594 124.726562 60.226562 C 125.320312 60.394531 125.894531 60.613281 126.449219 60.886719 C 127.003906 61.15625 127.53125 61.476562 128.027344 61.84375 C 128.523438 62.214844 128.980469 62.621094 129.402344 63.074219 C 129.824219 63.527344 130.203125 64.011719 130.535156 64.53125 C 130.867188 65.054688 131.152344 65.597656 131.382812 66.171875 C 131.617188 66.742188 131.796875 67.332031 131.925781 67.9375 C 132.050781 68.542969 132.121094 69.15625 132.136719 69.773438 C 132.152344 70.390625 132.109375 71.003906 132.011719 71.613281 C 131.914062 72.226562 131.765625 72.820312 131.558594 73.40625 C 131.351562 73.988281 131.097656 74.546875 130.789062 75.082031 C 130.480469 75.617188 130.128906 76.121094 129.726562 76.59375 C 129.328125 77.066406 128.890625 77.496094 128.410156 77.886719 C 129.265625 77.472656 130.050781 76.945312 130.757812 76.308594 C 131.464844 75.671875 132.070312 74.953125 132.578125 74.144531 C 133.082031 73.339844 133.46875 72.476562 133.730469 71.5625 C 133.996094 70.648438 134.128906 69.714844 134.132812 68.761719 Z M 134.113281 68.761719 " fill-opacity="1" fill-rule="nonzero"/><path fill="#008037" d="M 272.671875 32.148438 C 272.671875 32.925781 272.59375 33.695312 272.445312 34.457031 C 272.292969 35.214844 272.070312 35.957031 271.773438 36.671875 C 271.476562 37.390625 271.109375 38.070312 270.679688 38.71875 C 270.25 39.363281 269.761719 39.960938 269.210938 40.507812 C 268.664062 41.058594 268.066406 41.546875 267.421875 41.976562 C 266.777344 42.410156 266.097656 42.773438 265.378906 43.070312 C 264.664062 43.367188 263.925781 43.59375 263.164062 43.742188 C 262.40625 43.894531 261.636719 43.972656 260.859375 43.972656 C 260.085938 43.972656 259.316406 43.894531 258.558594 43.742188 C 257.796875 43.59375 257.058594 43.367188 256.34375 43.070312 C 255.625 42.773438 254.945312 42.410156 254.300781 41.976562 C 253.65625 41.546875 253.058594 41.058594 252.511719 40.507812 C 251.960938 39.960938 251.472656 39.363281 251.042969 38.71875 C 250.609375 38.070312 250.246094 37.390625 249.949219 36.671875 C 249.652344 35.957031 249.429688 35.214844 249.277344 34.457031 C 249.128906 33.695312 249.050781 32.925781 249.050781 32.148438 C 249.050781 31.371094 249.128906 30.605469 249.277344 29.84375 C 249.429688 29.082031 249.652344 28.34375 249.949219 27.625 C 250.246094 26.90625 250.609375 26.226562 251.042969 25.582031 C 251.472656 24.9375 251.960938 24.339844 252.511719 23.789062 C 253.058594 23.242188 253.65625 22.75 254.300781 22.320312 C 254.945312 21.886719 255.625 21.523438 256.34375 21.226562 C 257.058594 20.929688 257.796875 20.707031 258.558594 20.554688 C 259.316406 20.402344 260.085938 20.328125 260.859375 20.328125 C 261.636719 20.328125 262.40625 20.402344 263.164062 20.554688 C 263.925781 20.707031 264.664062 20.929688 265.378906 21.226562 C 266.097656 21.523438 266.777344 21.886719 267.421875 22.320312 C 268.066406 22.75 268.664062 23.242188 269.210938 23.789062 C 269.761719 24.339844 270.25 24.9375 270.679688 25.582031 C 271.109375 26.226562 271.476562 26.90625 271.773438 27.625 C 272.066406 28.34375 272.292969 29.082031 272.445312 29.84375 C 272.59375 30.605469 272.671875 31.371094 272.671875 32.148438 Z M 271.167969 31.726562 C 271.167969 30.765625 271.03125 29.824219 270.765625 28.898438 C 270.496094 27.976562 270.105469 27.105469 269.59375 26.292969 C 269.078125 25.480469 268.460938 24.753906 267.742188 24.117188 C 267.023438 23.480469 266.230469 22.953125 265.363281 22.542969 C 264.492188 22.128906 263.585938 21.847656 262.636719 21.691406 C 261.6875 21.539062 260.738281 21.519531 259.78125 21.636719 C 258.828125 21.75 257.910156 22 257.027344 22.375 C 256.140625 22.753906 255.328125 23.246094 254.582031 23.855469 C 255.988281 23.15625 257.472656 22.804688 259.042969 22.800781 C 260.089844 22.804688 261.113281 22.964844 262.109375 23.28125 C 263.109375 23.601562 264.035156 24.0625 264.890625 24.667969 C 265.746094 25.273438 266.492188 25.992188 267.125 26.828125 C 267.757812 27.664062 268.25 28.578125 268.601562 29.5625 C 268.953125 30.550781 269.148438 31.570312 269.183594 32.617188 C 269.222656 33.667969 269.101562 34.695312 268.820312 35.707031 C 268.539062 36.71875 268.113281 37.660156 267.539062 38.539062 C 266.96875 39.417969 266.277344 40.191406 265.46875 40.855469 C 266.324219 40.4375 267.105469 39.90625 267.816406 39.265625 C 268.523438 38.625 269.128906 37.902344 269.632812 37.089844 C 270.136719 36.28125 270.519531 35.414062 270.78125 34.496094 C 271.039062 33.578125 271.167969 32.640625 271.167969 31.6875 Z M 271.167969 31.726562 " fill-opacity="1" fill-rule="nonzero"/><path fill="#008037" d="M 354.222656 41.496094 C 354.601562 41.496094 354.980469 41.535156 355.351562 41.609375 C 355.726562 41.683594 356.089844 41.792969 356.441406 41.9375 C 356.792969 42.085938 357.125 42.261719 357.441406 42.472656 C 357.757812 42.6875 358.050781 42.925781 358.320312 43.195312 C 358.589844 43.464844 358.828125 43.757812 359.039062 44.074219 C 359.25 44.390625 359.429688 44.726562 359.574219 45.078125 C 359.722656 45.429688 359.832031 45.792969 359.90625 46.164062 C 359.980469 46.539062 360.015625 46.917969 360.015625 47.296875 C 360.015625 47.679688 359.980469 48.054688 359.90625 48.429688 C 359.832031 48.800781 359.722656 49.164062 359.574219 49.515625 C 359.429688 49.867188 359.25 50.203125 359.039062 50.519531 C 358.828125 50.835938 358.589844 51.128906 358.320312 51.398438 C 358.050781 51.667969 357.757812 51.910156 357.441406 52.121094 C 357.125 52.332031 356.792969 52.511719 356.441406 52.65625 C 356.089844 52.800781 355.726562 52.910156 355.351562 52.984375 C 354.980469 53.058594 354.601562 53.097656 354.222656 53.097656 C 353.84375 53.097656 353.464844 53.058594 353.09375 52.984375 C 352.71875 52.910156 352.355469 52.800781 352.003906 52.65625 C 351.652344 52.511719 351.320312 52.332031 351.003906 52.121094 C 350.6875 51.910156 350.394531 51.667969 350.125 51.398438 C 349.855469 51.128906 349.617188 50.835938 349.40625 50.519531 C 349.191406 50.203125 349.015625 49.867188 348.867188 49.515625 C 348.722656 49.164062 348.613281 48.800781 348.539062 48.429688 C 348.464844 48.054688 348.429688 47.679688 348.429688 47.296875 C 348.429688 46.917969 348.464844 46.539062 348.539062 46.164062 C 348.613281 45.792969 348.722656 45.429688 348.867188 45.078125 C 349.015625 44.726562 349.191406 44.390625 349.40625 44.074219 C 349.617188 43.757812 349.855469 43.464844 350.125 43.195312 C 350.394531 42.925781 350.6875 42.6875 351.003906 42.472656 C 351.320312 42.261719 351.652344 42.085938 352.003906 41.9375 C 352.355469 41.792969 352.71875 41.683594 353.09375 41.609375 C 353.464844 41.535156 353.84375 41.496094 354.222656 41.496094 Z M 351.960938 51.5625 C 351.5625 51.234375 351.222656 50.855469 350.941406 50.425781 C 350.660156 49.996094 350.453125 49.53125 350.3125 49.035156 C 350.175781 48.539062 350.117188 48.035156 350.132812 47.519531 C 350.152344 47.003906 350.25 46.503906 350.421875 46.019531 C 350.59375 45.535156 350.835938 45.089844 351.148438 44.679688 C 351.457031 44.269531 351.824219 43.914062 352.242188 43.617188 C 352.664062 43.324219 353.121094 43.097656 353.609375 42.941406 C 354.101562 42.785156 354.601562 42.707031 355.117188 42.707031 C 355.886719 42.707031 356.613281 42.878906 357.304688 43.222656 C 356.386719 42.46875 355.335938 42.09375 354.148438 42.097656 C 353.585938 42.09375 353.035156 42.1875 352.503906 42.371094 C 351.96875 42.558594 351.484375 42.824219 351.039062 43.175781 C 350.597656 43.527344 350.226562 43.941406 349.925781 44.417969 C 349.625 44.894531 349.410156 45.40625 349.28125 45.957031 C 349.152344 46.507812 349.121094 47.0625 349.179688 47.625 C 349.242188 48.1875 349.394531 48.722656 349.636719 49.230469 C 349.878906 49.742188 350.199219 50.195312 350.59375 50.597656 C 350.992188 51 351.445312 51.324219 351.949219 51.570312 Z M 351.960938 51.5625 " fill-opacity="1" fill-rule="nonzero"/><path fill="#008037" d="M 325.671875 53.097656 C 326.050781 53.097656 326.429688 53.136719 326.800781 53.210938 C 327.175781 53.285156 327.539062 53.394531 327.890625 53.539062 C 328.242188 53.683594 328.574219 53.863281 328.890625 54.074219 C 329.207031 54.289062 329.5 54.527344 329.769531 54.796875 C 330.039062 55.066406 330.277344 55.359375 330.492188 55.675781 C 330.703125 55.992188 330.878906 56.328125 331.027344 56.679688 C 331.171875 57.03125 331.28125 57.394531 331.355469 57.769531 C 331.429688 58.144531 331.464844 58.519531 331.464844 58.902344 C 331.464844 59.28125 331.429688 59.660156 331.351562 60.035156 C 331.277344 60.40625 331.167969 60.769531 331.023438 61.121094 C 330.875 61.472656 330.699219 61.808594 330.488281 62.125 C 330.273438 62.441406 330.035156 62.734375 329.765625 63.003906 C 329.496094 63.273438 329.203125 63.511719 328.886719 63.722656 C 328.570312 63.933594 328.234375 64.113281 327.882812 64.257812 C 327.53125 64.40625 327.167969 64.515625 326.796875 64.589844 C 326.421875 64.660156 326.042969 64.699219 325.664062 64.699219 C 325.285156 64.699219 324.90625 64.660156 324.535156 64.585938 C 324.160156 64.511719 323.796875 64.398438 323.445312 64.253906 C 323.09375 64.105469 322.761719 63.929688 322.445312 63.714844 C 322.128906 63.503906 321.835938 63.261719 321.566406 62.992188 C 321.300781 62.722656 321.058594 62.429688 320.847656 62.113281 C 320.636719 61.796875 320.460938 61.460938 320.3125 61.109375 C 320.167969 60.757812 320.058594 60.394531 319.984375 60.019531 C 319.914062 59.644531 319.875 59.269531 319.875 58.886719 C 319.878906 58.507812 319.914062 58.128906 319.988281 57.757812 C 320.066406 57.382812 320.175781 57.023438 320.320312 56.671875 C 320.46875 56.320312 320.644531 55.984375 320.855469 55.671875 C 321.070312 55.355469 321.308594 55.0625 321.578125 54.792969 C 321.847656 54.523438 322.140625 54.285156 322.457031 54.074219 C 322.773438 53.863281 323.105469 53.683594 323.457031 53.539062 C 323.808594 53.394531 324.167969 53.28125 324.542969 53.207031 C 324.914062 53.132812 325.292969 53.097656 325.671875 53.097656 Z M 323.410156 63.160156 C 323.011719 62.835938 322.671875 62.457031 322.390625 62.027344 C 322.109375 61.59375 321.902344 61.132812 321.761719 60.636719 C 321.625 60.140625 321.566406 59.636719 321.582031 59.121094 C 321.601562 58.605469 321.699219 58.105469 321.871094 57.621094 C 322.042969 57.136719 322.285156 56.6875 322.597656 56.28125 C 322.90625 55.871094 323.273438 55.515625 323.691406 55.21875 C 324.113281 54.921875 324.570312 54.695312 325.058594 54.542969 C 325.546875 54.386719 326.050781 54.308594 326.566406 54.308594 C 327.335938 54.308594 328.0625 54.480469 328.753906 54.824219 C 327.835938 54.070312 326.785156 53.691406 325.597656 53.699219 C 325.035156 53.695312 324.484375 53.789062 323.953125 53.972656 C 323.417969 54.15625 322.933594 54.425781 322.488281 54.777344 C 322.046875 55.128906 321.675781 55.542969 321.375 56.019531 C 321.074219 56.496094 320.859375 57.007812 320.730469 57.558594 C 320.601562 58.109375 320.570312 58.664062 320.628906 59.226562 C 320.691406 59.785156 320.84375 60.324219 321.085938 60.832031 C 321.328125 61.34375 321.648438 61.796875 322.042969 62.199219 C 322.441406 62.601562 322.894531 62.925781 323.398438 63.171875 Z M 323.410156 63.160156 " fill-opacity="1" fill-rule="nonzero"/><path fill="#008037" d="M 85.023438 47.296875 C 85.402344 47.296875 85.78125 47.335938 86.152344 47.410156 C 86.527344 47.484375 86.890625 47.59375 87.242188 47.738281 C 87.59375 47.882812 87.925781 48.0625 88.242188 48.273438 C 88.558594 48.488281 88.851562 48.726562 89.121094 48.996094 C 89.390625 49.265625 89.628906 49.558594 89.839844 49.875 C 90.050781 50.191406 90.230469 50.527344 90.375 50.878906 C 90.523438 51.230469 90.632812 51.59375 90.707031 51.964844 C 90.78125 52.339844 90.816406 52.714844 90.816406 53.097656 C 90.816406 53.476562 90.78125 53.855469 90.707031 54.230469 C 90.632812 54.601562 90.523438 54.964844 90.375 55.316406 C 90.230469 55.667969 90.050781 56.003906 89.839844 56.320312 C 89.628906 56.636719 89.390625 56.929688 89.121094 57.199219 C 88.851562 57.46875 88.558594 57.707031 88.242188 57.921875 C 87.925781 58.132812 87.59375 58.3125 87.242188 58.457031 C 86.890625 58.601562 86.527344 58.710938 86.152344 58.785156 C 85.78125 58.859375 85.402344 58.898438 85.023438 58.898438 C 84.640625 58.898438 84.265625 58.859375 83.890625 58.785156 C 83.519531 58.710938 83.15625 58.601562 82.804688 58.457031 C 82.453125 58.3125 82.121094 58.132812 81.804688 57.921875 C 81.488281 57.707031 81.195312 57.46875 80.925781 57.199219 C 80.65625 56.929688 80.417969 56.636719 80.207031 56.320312 C 79.992188 56.003906 79.816406 55.667969 79.667969 55.316406 C 79.523438 54.964844 79.414062 54.601562 79.339844 54.230469 C 79.265625 53.855469 79.230469 53.476562 79.226562 53.097656 C 79.230469 52.714844 79.265625 52.339844 79.339844 51.964844 C 79.414062 51.59375 79.523438 51.230469 79.667969 50.878906 C 79.816406 50.527344 79.992188 50.191406 80.207031 49.875 C 80.417969 49.558594 80.65625 49.265625 80.925781 48.996094 C 81.195312 48.726562 81.488281 48.488281 81.804688 48.273438 C 82.121094 48.0625 82.453125 47.882812 82.804688 47.738281 C 83.15625 47.59375 83.519531 47.484375 83.890625 47.410156 C 84.265625 47.335938 84.640625 47.296875 85.023438 47.296875 Z M 82.773438 57.359375 C 82.296875 56.976562 81.902344 56.519531 81.59375 55.988281 C 81.285156 55.457031 81.082031 54.890625 80.984375 54.285156 C 80.886719 53.679688 80.898438 53.078125 81.023438 52.476562 C 81.148438 51.875 81.375 51.316406 81.703125 50.800781 C 82.035156 50.285156 82.445312 49.84375 82.941406 49.480469 C 83.433594 49.113281 83.972656 48.851562 84.566406 48.6875 C 85.15625 48.523438 85.753906 48.46875 86.367188 48.527344 C 86.976562 48.585938 87.554688 48.75 88.105469 49.023438 C 87.1875 48.269531 86.136719 47.894531 84.949219 47.898438 C 84.382812 47.890625 83.832031 47.980469 83.296875 48.164062 C 82.757812 48.347656 82.269531 48.613281 81.824219 48.964844 C 81.378906 49.316406 81.003906 49.730469 80.703125 50.207031 C 80.398438 50.6875 80.183594 51.203125 80.054688 51.753906 C 79.925781 52.308594 79.894531 52.867188 79.957031 53.429688 C 80.019531 53.992188 80.175781 54.53125 80.421875 55.039062 C 80.667969 55.550781 80.992188 56.007812 81.394531 56.40625 C 81.792969 56.804688 82.25 57.128906 82.761719 57.371094 Z M 82.773438 57.359375 " fill-opacity="1" fill-rule="nonzero"/><path fill="#008037" d="M 322.359375 108.796875 C 322.359375 109.398438 322.417969 109.996094 322.535156 110.589844 C 322.652344 111.183594 322.828125 111.757812 323.058594 112.316406 C 323.289062 112.875 323.574219 113.40625 323.90625 113.90625 C 324.242188 114.410156 324.625 114.875 325.050781 115.300781 C 325.476562 115.726562 325.941406 116.109375 326.445312 116.445312 C 326.945312 116.78125 327.476562 117.0625 328.03125 117.296875 C 328.589844 117.527344 329.164062 117.699219 329.757812 117.820312 C 330.347656 117.9375 330.945312 117.996094 331.550781 117.996094 C 332.152344 117.996094 332.75 117.9375 333.34375 117.820312 C 333.933594 117.699219 334.507812 117.527344 335.066406 117.296875 C 335.625 117.0625 336.152344 116.78125 336.65625 116.445312 C 337.15625 116.109375 337.621094 115.726562 338.046875 115.300781 C 338.476562 114.875 338.855469 114.410156 339.191406 113.90625 C 339.527344 113.40625 339.808594 112.875 340.042969 112.316406 C 340.273438 111.757812 340.445312 111.183594 340.5625 110.589844 C 340.683594 109.996094 340.742188 109.398438 340.742188 108.796875 C 340.742188 108.191406 340.683594 107.59375 340.5625 107 C 340.445312 106.40625 340.273438 105.832031 340.042969 105.273438 C 339.808594 104.714844 339.527344 104.1875 339.191406 103.683594 C 338.855469 103.179688 338.476562 102.714844 338.046875 102.289062 C 337.621094 101.863281 337.15625 101.480469 336.65625 101.144531 C 336.152344 100.808594 335.625 100.527344 335.066406 100.296875 C 334.507812 100.0625 333.933594 99.890625 333.34375 99.773438 C 332.75 99.652344 332.152344 99.59375 331.550781 99.59375 C 330.945312 99.59375 330.347656 99.652344 329.757812 99.773438 C 329.164062 99.890625 328.589844 100.0625 328.03125 100.296875 C 327.476562 100.527344 326.945312 100.808594 326.445312 101.144531 C 325.941406 101.480469 325.476562 101.863281 325.050781 102.289062 C 324.625 102.714844 324.242188 103.179688 323.90625 103.683594 C 323.574219 104.1875 323.289062 104.714844 323.058594 105.273438 C 322.828125 105.832031 322.652344 106.40625 322.535156 107 C 322.417969 107.59375 322.359375 108.191406 322.359375 108.796875 Z M 322.359375 108.796875 " fill-opacity="1" fill-rule="nonzero"/><path fill="#008037" d="M 51.550781 208.726562 C 51.550781 209.332031 51.609375 209.929688 51.726562 210.523438 C 51.84375 211.113281 52.019531 211.691406 52.25 212.246094 C 52.480469 212.804688 52.765625 213.335938 53.097656 213.839844 C 53.433594 214.339844 53.816406 214.804688 54.242188 215.234375 C 54.667969 215.660156 55.132812 216.042969 55.636719 216.378906 C 56.136719 216.710938 56.667969 216.996094 57.222656 217.226562 C 57.78125 217.457031 58.355469 217.632812 58.949219 217.75 C 59.539062 217.867188 60.136719 217.925781 60.742188 217.925781 C 61.34375 217.925781 61.941406 217.867188 62.535156 217.75 C 63.125 217.632812 63.699219 217.457031 64.257812 217.226562 C 64.816406 216.996094 65.347656 216.710938 65.847656 216.378906 C 66.347656 216.042969 66.8125 215.660156 67.242188 215.234375 C 67.667969 214.804688 68.046875 214.339844 68.382812 213.839844 C 68.71875 213.335938 69 212.804688 69.234375 212.246094 C 69.464844 211.691406 69.636719 211.113281 69.753906 210.523438 C 69.875 209.929688 69.933594 209.332031 69.933594 208.726562 C 69.933594 208.121094 69.875 207.523438 69.753906 206.933594 C 69.636719 206.339844 69.464844 205.765625 69.234375 205.207031 C 69 204.648438 68.71875 204.117188 68.382812 203.617188 C 68.046875 203.113281 67.667969 202.648438 67.242188 202.222656 C 66.8125 201.792969 66.347656 201.414062 65.847656 201.078125 C 65.347656 200.742188 64.816406 200.457031 64.257812 200.226562 C 63.699219 199.996094 63.125 199.820312 62.535156 199.703125 C 61.941406 199.585938 61.34375 199.527344 60.742188 199.527344 C 60.136719 199.527344 59.539062 199.585938 58.949219 199.703125 C 58.355469 199.820312 57.78125 199.996094 57.222656 200.226562 C 56.667969 200.457031 56.136719 200.742188 55.636719 201.078125 C 55.132812 201.414062 54.667969 201.792969 54.242188 202.222656 C 53.816406 202.648438 53.433594 203.113281 53.097656 203.617188 C 52.765625 204.117188 52.480469 204.648438 52.25 205.207031 C 52.019531 205.765625 51.84375 206.339844 51.726562 206.933594 C 51.609375 207.523438 51.550781 208.121094 51.550781 208.726562 Z M 51.550781 208.726562 " fill-opacity="1" fill-rule="nonzero"/><path fill="#008037" d="M 358.976562 188.253906 C 359.519531 188.253906 360.066406 188.277344 360.605469 188.332031 C 361.148438 188.386719 361.6875 188.464844 362.222656 188.574219 C 362.757812 188.679688 363.285156 188.8125 363.808594 188.96875 C 364.328125 189.128906 364.84375 189.3125 365.347656 189.519531 C 365.851562 189.730469 366.34375 189.960938 366.824219 190.21875 C 367.304688 190.476562 367.769531 190.757812 368.222656 191.0625 C 368.675781 191.363281 369.113281 191.6875 369.535156 192.035156 C 369.957031 192.382812 370.359375 192.746094 370.746094 193.132812 C 371.132812 193.519531 371.496094 193.921875 371.84375 194.34375 C 372.191406 194.765625 372.515625 195.203125 372.816406 195.660156 C 373.121094 196.113281 373.398438 196.578125 373.65625 197.0625 C 373.914062 197.542969 374.144531 198.035156 374.355469 198.539062 C 374.5625 199.042969 374.746094 199.558594 374.90625 200.078125 C 375.0625 200.601562 375.195312 201.128906 375.300781 201.664062 C 375.410156 202.199219 375.488281 202.738281 375.542969 203.28125 C 375.59375 203.824219 375.621094 204.371094 375.621094 204.917969 C 375.621094 204.371094 375.648438 203.824219 375.703125 203.28125 C 375.757812 202.738281 375.835938 202.199219 375.941406 201.664062 C 376.046875 201.128906 376.179688 200.601562 376.339844 200.078125 C 376.496094 199.558594 376.679688 199.042969 376.890625 198.539062 C 377.097656 198.035156 377.332031 197.542969 377.589844 197.0625 C 377.84375 196.578125 378.125 196.113281 378.429688 195.660156 C 378.730469 195.203125 379.054688 194.765625 379.402344 194.34375 C 379.746094 193.921875 380.113281 193.519531 380.5 193.132812 C 380.882812 192.746094 381.285156 192.382812 381.707031 192.035156 C 382.128906 191.6875 382.566406 191.363281 383.019531 191.0625 C 383.472656 190.757812 383.941406 190.476562 384.421875 190.21875 C 384.902344 189.960938 385.394531 189.730469 385.898438 189.519531 C 386.402344 189.3125 386.914062 189.128906 387.4375 188.96875 C 387.957031 188.8125 388.488281 188.679688 389.023438 188.574219 C 389.554688 188.464844 390.09375 188.386719 390.636719 188.332031 C 391.179688 188.277344 391.722656 188.253906 392.269531 188.253906 C 391.722656 188.253906 391.179688 188.226562 390.636719 188.171875 C 390.09375 188.117188 389.554688 188.039062 389.023438 187.933594 C 388.488281 187.824219 387.957031 187.691406 387.4375 187.535156 C 386.914062 187.375 386.402344 187.191406 385.898438 186.984375 C 385.394531 186.773438 384.902344 186.542969 384.421875 186.285156 C 383.941406 186.027344 383.472656 185.746094 383.019531 185.445312 C 382.566406 185.140625 382.128906 184.816406 381.707031 184.46875 C 381.285156 184.125 380.882812 183.757812 380.5 183.371094 C 380.113281 182.984375 379.746094 182.582031 379.402344 182.160156 C 379.054688 181.738281 378.730469 181.300781 378.429688 180.847656 C 378.125 180.390625 377.84375 179.925781 377.589844 179.445312 C 377.332031 178.960938 377.097656 178.46875 376.890625 177.964844 C 376.679688 177.460938 376.496094 176.949219 376.339844 176.425781 C 376.179688 175.902344 376.046875 175.375 375.941406 174.839844 C 375.835938 174.304688 375.757812 173.765625 375.703125 173.222656 C 375.648438 172.679688 375.621094 172.132812 375.621094 171.589844 C 375.621094 172.132812 375.59375 172.679688 375.542969 173.222656 C 375.488281 173.765625 375.410156 174.304688 375.300781 174.839844 C 375.195312 175.375 375.0625 175.902344 374.90625 176.425781 C 374.746094 176.949219 374.5625 177.460938 374.355469 177.964844 C 374.148438 178.46875 373.914062 178.960938 373.65625 179.445312 C 373.398438 179.925781 373.121094 180.390625 372.816406 180.847656 C 372.515625 181.300781 372.191406 181.738281 371.84375 182.160156 C 371.496094 182.582031 371.132812 182.984375 370.746094 183.371094 C 370.359375 183.757812 369.957031 184.125 369.535156 184.46875 C 369.113281 184.816406 368.675781 185.140625 368.222656 185.445312 C 367.769531 185.746094 367.304688 186.027344 366.824219 186.285156 C 366.34375 186.542969 365.851562 186.773438 365.347656 186.984375 C 364.84375 187.191406 364.328125 187.375 363.808594 187.535156 C 363.285156 187.691406 362.757812 187.824219 362.222656 187.933594 C 361.6875 188.039062 361.148438 188.117188 360.605469 188.171875 C 360.066406 188.226562 359.519531 188.253906 358.976562 188.253906 Z M 358.976562 188.253906 " fill-opacity="1" fill-rule="nonzero"/><path fill="#008037" d="M 205.789062 99.605469 C 205.789062 100.152344 205.816406 100.695312 205.867188 101.238281 C 205.921875 101.78125 206.003906 102.320312 206.109375 102.855469 C 206.214844 103.390625 206.347656 103.921875 206.503906 104.441406 C 206.664062 104.964844 206.847656 105.476562 207.054688 105.980469 C 207.265625 106.488281 207.496094 106.980469 207.753906 107.460938 C 208.011719 107.941406 208.292969 108.410156 208.59375 108.863281 C 208.898438 109.316406 209.222656 109.753906 209.566406 110.175781 C 209.914062 110.597656 210.277344 111.003906 210.664062 111.386719 C 211.050781 111.773438 211.453125 112.140625 211.875 112.488281 C 212.296875 112.832031 212.734375 113.15625 213.1875 113.460938 C 213.640625 113.765625 214.109375 114.042969 214.589844 114.300781 C 215.070312 114.558594 215.5625 114.792969 216.066406 115 C 216.570312 115.210938 217.082031 115.394531 217.601562 115.550781 C 218.125 115.710938 218.652344 115.84375 219.1875 115.949219 C 219.722656 116.054688 220.261719 116.136719 220.804688 116.1875 C 221.347656 116.242188 221.890625 116.269531 222.4375 116.269531 C 222.980469 116.269531 223.523438 116.242188 224.066406 116.1875 C 224.609375 116.136719 225.148438 116.054688 225.683594 115.949219 C 226.21875 115.84375 226.746094 115.710938 227.269531 115.550781 C 227.789062 115.394531 228.300781 115.210938 228.804688 115 C 229.308594 114.792969 229.800781 114.558594 230.28125 114.300781 C 230.761719 114.042969 231.230469 113.765625 231.683594 113.460938 C 232.136719 113.15625 232.574219 112.832031 232.996094 112.488281 C 233.417969 112.140625 233.820312 111.773438 234.207031 111.386719 C 234.59375 111.003906 234.957031 110.597656 235.304688 110.175781 C 235.648438 109.753906 235.972656 109.316406 236.277344 108.863281 C 236.578125 108.410156 236.859375 107.941406 237.117188 107.460938 C 237.375 106.980469 237.605469 106.488281 237.816406 105.980469 C 238.023438 105.476562 238.207031 104.964844 238.367188 104.441406 C 238.523438 103.921875 238.65625 103.390625 238.761719 102.855469 C 238.867188 102.320312 238.949219 101.78125 239.003906 101.238281 C 239.054688 100.695312 239.082031 100.152344 239.082031 99.605469 C 239.082031 99.058594 239.054688 98.515625 239.003906 97.972656 C 238.949219 97.429688 238.867188 96.890625 238.761719 96.355469 C 238.65625 95.820312 238.523438 95.289062 238.367188 94.769531 C 238.207031 94.246094 238.023438 93.734375 237.816406 93.226562 C 237.605469 92.722656 237.375 92.230469 237.117188 91.75 C 236.859375 91.269531 236.578125 90.800781 236.277344 90.347656 C 235.972656 89.894531 235.648438 89.457031 235.304688 89.035156 C 234.957031 88.613281 234.59375 88.207031 234.207031 87.820312 C 233.820312 87.4375 233.417969 87.070312 232.996094 86.722656 C 232.574219 86.378906 232.136719 86.054688 231.683594 85.75 C 231.230469 85.445312 230.761719 85.167969 230.28125 84.910156 C 229.800781 84.652344 229.308594 84.417969 228.804688 84.210938 C 228.300781 84 227.789062 83.816406 227.269531 83.660156 C 226.746094 83.5 226.21875 83.367188 225.683594 83.261719 C 225.148438 83.15625 224.609375 83.074219 224.066406 83.023438 C 223.523438 82.96875 222.980469 82.941406 222.4375 82.941406 C 221.890625 82.941406 221.347656 82.96875 220.804688 83.023438 C 220.261719 83.074219 219.722656 83.15625 219.1875 83.261719 C 218.652344 83.367188 218.125 83.5 217.601562 83.660156 C 217.082031 83.816406 216.570312 84 216.066406 84.210938 C 215.5625 84.417969 215.070312 84.652344 214.589844 84.910156 C 214.109375 85.167969 213.640625 85.445312 213.1875 85.75 C 212.734375 86.054688 212.296875 86.378906 211.875 86.722656 C 211.453125 87.070312 211.050781 87.4375 210.664062 87.820312 C 210.277344 88.207031 209.914062 88.613281 209.566406 89.035156 C 209.222656 89.457031 208.898438 89.894531 208.59375 90.347656 C 208.292969 90.800781 208.011719 91.269531 207.753906 91.75 C 207.496094 92.230469 207.265625 92.722656 207.054688 93.226562 C 206.847656 93.734375 206.664062 94.246094 206.503906 94.769531 C 206.347656 95.289062 206.214844 95.820312 206.109375 96.355469 C 206.003906 96.890625 205.921875 97.429688 205.867188 97.972656 C 205.816406 98.515625 205.789062 99.058594 205.789062 99.605469 Z M 205.789062 99.605469 " fill-opacity="1" fill-rule="nonzero"/><path fill="#008037" d="M 17.40625 147.480469 C 17.789062 147.480469 18.171875 147.519531 18.550781 147.59375 C 18.925781 147.667969 19.292969 147.78125 19.652344 147.929688 C 20.007812 148.078125 20.34375 148.257812 20.664062 148.472656 C 20.984375 148.6875 21.28125 148.929688 21.554688 149.203125 C 21.828125 149.476562 22.070312 149.773438 22.285156 150.09375 C 22.496094 150.414062 22.679688 150.75 22.824219 151.109375 C 22.972656 151.464844 23.085938 151.832031 23.160156 152.210938 C 23.234375 152.589844 23.273438 152.96875 23.273438 153.355469 C 23.273438 152.96875 23.308594 152.585938 23.386719 152.207031 C 23.460938 151.828125 23.574219 151.460938 23.71875 151.105469 C 23.867188 150.75 24.050781 150.410156 24.265625 150.089844 C 24.476562 149.769531 24.722656 149.472656 24.996094 149.199219 C 25.269531 148.925781 25.566406 148.683594 25.886719 148.46875 C 26.207031 148.253906 26.546875 148.074219 26.902344 147.925781 C 27.257812 147.777344 27.625 147.667969 28.003906 147.59375 C 28.382812 147.519531 28.765625 147.480469 29.152344 147.480469 C 28.765625 147.480469 28.382812 147.445312 28.003906 147.367188 C 27.625 147.292969 27.257812 147.179688 26.902344 147.035156 C 26.546875 146.886719 26.207031 146.703125 25.886719 146.488281 C 25.5625 146.273438 25.265625 146.03125 24.996094 145.757812 C 24.722656 145.484375 24.476562 145.1875 24.261719 144.867188 C 24.050781 144.546875 23.867188 144.207031 23.71875 143.847656 C 23.574219 143.492188 23.460938 143.125 23.386719 142.746094 C 23.308594 142.367188 23.273438 141.984375 23.273438 141.597656 C 23.273438 141.984375 23.238281 142.367188 23.160156 142.746094 C 23.085938 143.125 22.976562 143.492188 22.828125 143.847656 C 22.683594 144.207031 22.5 144.542969 22.289062 144.867188 C 22.074219 145.1875 21.832031 145.484375 21.558594 145.757812 C 21.285156 146.03125 20.988281 146.273438 20.667969 146.488281 C 20.347656 146.703125 20.007812 146.886719 19.652344 147.035156 C 19.296875 147.179688 18.929688 147.292969 18.550781 147.367188 C 18.171875 147.445312 17.789062 147.480469 17.40625 147.480469 Z M 17.40625 147.480469 " fill-opacity="1" fill-rule="nonzero"/><path fill="#008037" d="M 190.234375 54.496094 C 190.621094 54.496094 191.003906 54.535156 191.382812 54.609375 C 191.761719 54.6875 192.128906 54.796875 192.484375 54.945312 C 192.839844 55.09375 193.179688 55.273438 193.5 55.488281 C 193.824219 55.703125 194.121094 55.949219 194.390625 56.222656 C 194.664062 56.496094 194.910156 56.792969 195.125 57.113281 C 195.335938 57.433594 195.519531 57.773438 195.667969 58.128906 C 195.8125 58.488281 195.925781 58.855469 196 59.234375 C 196.078125 59.613281 196.113281 59.996094 196.113281 60.382812 C 196.113281 59.996094 196.148438 59.613281 196.226562 59.234375 C 196.300781 58.855469 196.410156 58.488281 196.558594 58.132812 C 196.703125 57.773438 196.886719 57.433594 197.097656 57.113281 C 197.3125 56.792969 197.554688 56.496094 197.828125 56.222656 C 198.101562 55.949219 198.398438 55.703125 198.71875 55.488281 C 199.039062 55.273438 199.378906 55.09375 199.734375 54.945312 C 200.089844 54.796875 200.457031 54.6875 200.835938 54.609375 C 201.214844 54.535156 201.597656 54.496094 201.980469 54.496094 C 201.597656 54.496094 201.214844 54.460938 200.835938 54.386719 C 200.460938 54.308594 200.09375 54.199219 199.738281 54.050781 C 199.378906 53.902344 199.042969 53.722656 198.722656 53.507812 C 198.402344 53.292969 198.105469 53.050781 197.832031 52.777344 C 197.558594 52.503906 197.316406 52.207031 197.101562 51.886719 C 196.890625 51.566406 196.707031 51.226562 196.5625 50.871094 C 196.414062 50.515625 196.300781 50.148438 196.226562 49.769531 C 196.152344 49.390625 196.113281 49.007812 196.113281 48.625 C 196.113281 49.007812 196.074219 49.390625 196 49.769531 C 195.921875 50.148438 195.8125 50.515625 195.664062 50.871094 C 195.515625 51.230469 195.335938 51.566406 195.121094 51.886719 C 194.90625 52.207031 194.660156 52.503906 194.386719 52.777344 C 194.117188 53.050781 193.820312 53.292969 193.5 53.507812 C 193.175781 53.722656 192.839844 53.902344 192.484375 54.050781 C 192.125 54.199219 191.757812 54.308594 191.382812 54.386719 C 191.003906 54.460938 190.621094 54.496094 190.234375 54.496094 Z M 190.234375 54.496094 " fill-opacity="1" fill-rule="nonzero"/><path fill="#008037" d="M 399.609375 85.152344 C 399.609375 85.539062 399.648438 85.917969 399.722656 86.296875 C 399.796875 86.675781 399.910156 87.042969 400.054688 87.398438 C 400.203125 87.757812 400.382812 88.09375 400.597656 88.414062 C 400.8125 88.734375 401.054688 89.03125 401.328125 89.304688 C 401.601562 89.578125 401.898438 89.820312 402.21875 90.035156 C 402.539062 90.25 402.875 90.429688 403.230469 90.578125 C 403.585938 90.726562 403.953125 90.835938 404.332031 90.914062 C 404.710938 90.988281 405.09375 91.027344 405.476562 91.027344 C 405.863281 91.027344 406.246094 90.988281 406.621094 90.914062 C 407 90.835938 407.367188 90.726562 407.722656 90.578125 C 408.078125 90.429688 408.417969 90.25 408.738281 90.035156 C 409.058594 89.820312 409.355469 89.578125 409.625 89.304688 C 409.898438 89.03125 410.140625 88.734375 410.355469 88.414062 C 410.570312 88.09375 410.75 87.757812 410.898438 87.398438 C 411.046875 87.042969 411.15625 86.675781 411.234375 86.296875 C 411.308594 85.917969 411.34375 85.539062 411.34375 85.152344 C 411.34375 84.765625 411.308594 84.382812 411.234375 84.007812 C 411.15625 83.628906 411.046875 83.261719 410.898438 82.902344 C 410.75 82.546875 410.570312 82.210938 410.355469 81.886719 C 410.140625 81.566406 409.898438 81.269531 409.625 81 C 409.355469 80.726562 409.058594 80.480469 408.738281 80.269531 C 408.417969 80.054688 408.078125 79.871094 407.722656 79.726562 C 407.367188 79.578125 407 79.464844 406.621094 79.390625 C 406.246094 79.316406 405.863281 79.277344 405.476562 79.277344 C 405.09375 79.277344 404.710938 79.316406 404.332031 79.390625 C 403.953125 79.464844 403.585938 79.578125 403.230469 79.726562 C 402.875 79.871094 402.539062 80.054688 402.21875 80.269531 C 401.898438 80.480469 401.601562 80.726562 401.328125 81 C 401.054688 81.269531 400.8125 81.566406 400.597656 81.886719 C 400.382812 82.210938 400.203125 82.546875 400.054688 82.902344 C 399.910156 83.261719 399.796875 83.628906 399.722656 84.007812 C 399.648438 84.382812 399.609375 84.765625 399.609375 85.152344 Z M 399.609375 85.152344 " fill-opacity="1" fill-rule="nonzero"/><path fill="#008037" d="M 79.15625 85.152344 C 79.539062 85.152344 79.921875 85.191406 80.300781 85.265625 C 80.679688 85.339844 81.046875 85.453125 81.402344 85.601562 C 81.757812 85.746094 82.097656 85.929688 82.417969 86.144531 C 82.738281 86.359375 83.035156 86.601562 83.308594 86.875 C 83.582031 87.148438 83.824219 87.445312 84.039062 87.769531 C 84.25 88.089844 84.433594 88.429688 84.578125 88.785156 C 84.726562 89.140625 84.835938 89.511719 84.910156 89.890625 C 84.988281 90.269531 85.023438 90.648438 85.023438 91.035156 C 85.023438 90.648438 85.058594 90.265625 85.136719 89.886719 C 85.210938 89.507812 85.324219 89.140625 85.46875 88.785156 C 85.617188 88.425781 85.800781 88.089844 86.011719 87.765625 C 86.226562 87.445312 86.472656 87.148438 86.746094 86.875 C 87.019531 86.601562 87.316406 86.359375 87.636719 86.144531 C 87.957031 85.929688 88.296875 85.746094 88.652344 85.601562 C 89.007812 85.453125 89.375 85.339844 89.753906 85.265625 C 90.132812 85.191406 90.515625 85.152344 90.902344 85.152344 C 90.515625 85.152344 90.132812 85.117188 89.753906 85.039062 C 89.375 84.964844 89.007812 84.855469 88.652344 84.707031 C 88.296875 84.5625 87.957031 84.378906 87.636719 84.164062 C 87.316406 83.953125 87.019531 83.707031 86.746094 83.433594 C 86.472656 83.164062 86.226562 82.867188 86.015625 82.542969 C 85.800781 82.222656 85.617188 81.886719 85.46875 81.527344 C 85.324219 81.171875 85.210938 80.804688 85.136719 80.425781 C 85.058594 80.046875 85.023438 79.664062 85.023438 79.277344 C 85.023438 79.664062 84.984375 80.046875 84.910156 80.425781 C 84.835938 80.800781 84.722656 81.167969 84.578125 81.527344 C 84.429688 81.882812 84.246094 82.21875 84.035156 82.542969 C 83.820312 82.863281 83.578125 83.160156 83.304688 83.429688 C 83.03125 83.703125 82.734375 83.949219 82.414062 84.160156 C 82.09375 84.375 81.757812 84.558594 81.402344 84.703125 C 81.042969 84.851562 80.675781 84.964844 80.300781 85.039062 C 79.921875 85.113281 79.539062 85.152344 79.15625 85.152344 Z M 79.15625 85.152344 " fill-opacity="1" fill-rule="nonzero"/><path fill="#008037" d="M 54.875 99.480469 C 54.875 99.863281 54.910156 100.246094 54.984375 100.625 C 55.0625 101.003906 55.171875 101.371094 55.320312 101.726562 C 55.46875 102.082031 55.648438 102.421875 55.863281 102.742188 C 56.078125 103.0625 56.320312 103.359375 56.59375 103.632812 C 56.863281 103.90625 57.160156 104.148438 57.480469 104.363281 C 57.800781 104.578125 58.140625 104.757812 58.496094 104.90625 C 58.851562 105.054688 59.21875 105.164062 59.597656 105.238281 C 59.972656 105.316406 60.355469 105.351562 60.742188 105.351562 C 61.125 105.351562 61.507812 105.316406 61.886719 105.238281 C 62.265625 105.164062 62.632812 105.054688 62.988281 104.90625 C 63.34375 104.757812 63.679688 104.578125 64 104.363281 C 64.320312 104.148438 64.617188 103.90625 64.890625 103.632812 C 65.164062 103.359375 65.40625 103.0625 65.621094 102.742188 C 65.835938 102.421875 66.015625 102.082031 66.164062 101.726562 C 66.308594 101.371094 66.421875 101.003906 66.496094 100.625 C 66.570312 100.246094 66.609375 99.863281 66.609375 99.480469 C 66.609375 99.09375 66.570312 98.710938 66.496094 98.332031 C 66.421875 97.953125 66.308594 97.585938 66.164062 97.230469 C 66.015625 96.875 65.835938 96.535156 65.621094 96.214844 C 65.40625 95.894531 65.164062 95.597656 64.890625 95.324219 C 64.617188 95.054688 64.320312 94.808594 64 94.59375 C 63.679688 94.378906 63.34375 94.199219 62.988281 94.050781 C 62.632812 93.90625 62.265625 93.792969 61.886719 93.71875 C 61.507812 93.644531 61.125 93.605469 60.742188 93.605469 C 60.355469 93.605469 59.972656 93.644531 59.597656 93.71875 C 59.21875 93.792969 58.851562 93.90625 58.496094 94.050781 C 58.140625 94.199219 57.800781 94.378906 57.480469 94.59375 C 57.160156 94.808594 56.863281 95.054688 56.59375 95.324219 C 56.320312 95.597656 56.078125 95.894531 55.863281 96.214844 C 55.648438 96.535156 55.46875 96.875 55.320312 97.230469 C 55.171875 97.585938 55.0625 97.953125 54.984375 98.332031 C 54.910156 98.710938 54.875 99.09375 54.875 99.480469 Z M 54.875 99.480469 " fill-opacity="1" fill-rule="nonzero"/><path fill="#ffffff" d="M 254.265625 165.796875 C 285.585938 168.957031 320.519531 169.03125 331.464844 169.03125 L 254.371094 159.621094 C 254.570312 160.058594 254.824219 160.464844 255.140625 160.832031 C 255.453125 161.195312 255.8125 161.511719 256.21875 161.773438 C 256.621094 162.035156 257.054688 162.234375 257.519531 162.371094 C 257.980469 162.507812 258.453125 162.578125 258.9375 162.578125 C 258.429688 162.578125 257.933594 162.652344 257.453125 162.804688 C 256.96875 162.953125 256.519531 163.171875 256.101562 163.460938 C 255.683594 163.746094 255.320312 164.089844 255.007812 164.488281 C 254.695312 164.886719 254.449219 165.324219 254.265625 165.796875 Z M 254.265625 165.796875 " fill-opacity="1" fill-rule="nonzero"/><path fill="#ffffff" d="M 248.945312 162.578125 C 249.4375 162.578125 249.917969 162.507812 250.390625 162.363281 C 250.863281 162.222656 251.300781 162.015625 251.710938 161.742188 C 252.121094 161.46875 252.484375 161.144531 252.796875 160.765625 C 253.109375 160.382812 253.363281 159.96875 253.550781 159.515625 L 203.308594 153.375 C 211.171875 157.152344 219.335938 160.078125 227.804688 162.160156 C 236.277344 164.238281 244.867188 165.429688 253.585938 165.726562 C 253.398438 165.261719 253.148438 164.832031 252.835938 164.445312 C 252.523438 164.054688 252.160156 163.71875 251.746094 163.4375 C 251.335938 163.160156 250.890625 162.945312 250.410156 162.796875 C 249.933594 162.652344 249.445312 162.578125 248.945312 162.578125 Z M 248.945312 162.578125 " fill-opacity="1" fill-rule="nonzero"/><g clip-path="url(#9af3b15ef6)"><path fill="#008037" d="M 75.398438 152.839844 C 82.269531 151.550781 89.074219 149.851562 95.769531 147.777344 C 102.457031 145.675781 109.066406 143.28125 115.605469 140.632812 C 122.140625 137.976562 128.636719 135.136719 135.140625 132.1875 L 154.820312 123.210938 C 161.464844 120.203125 168.222656 117.242188 175.1875 114.4375 C 176.9375 113.746094 178.671875 113.035156 180.453125 112.371094 L 183.109375 111.363281 L 185.800781 110.386719 C 187.582031 109.726562 189.421875 109.125 191.230469 108.488281 C 192.140625 108.179688 193.070312 107.890625 193.988281 107.589844 C 194.910156 107.292969 195.820312 106.984375 196.761719 106.707031 C 198.628906 106.144531 200.484375 105.566406 202.386719 105.054688 C 203.335938 104.792969 204.273438 104.519531 205.230469 104.273438 L 208.105469 103.554688 C 210.019531 103.078125 211.925781 102.582031 213.875 102.1875 L 216.785156 101.566406 C 217.753906 101.363281 218.71875 101.140625 219.703125 100.976562 L 225.578125 99.925781 L 231.496094 99.046875 C 231.988281 98.976562 232.480469 98.894531 232.976562 98.835938 L 234.460938 98.664062 L 237.4375 98.3125 C 238.429688 98.207031 239.414062 98.066406 240.410156 97.984375 L 243.398438 97.722656 C 251.351562 97.027344 259.339844 96.707031 267.292969 96.785156 C 275.25 96.863281 283.164062 97.253906 291.007812 97.960938 C 306.695312 99.367188 322.042969 102.015625 336.964844 105.4375 C 351.871094 108.910156 366.359375 113.179688 380.386719 118.082031 C 387.402344 120.539062 394.324219 123.117188 401.109375 125.875 C 407.910156 128.613281 414.597656 131.488281 421.171875 134.492188 C 407.097656 129.800781 392.917969 125.363281 378.480469 121.558594 C 364.070312 117.703125 349.425781 114.449219 334.636719 111.910156 C 327.242188 110.644531 319.792969 109.625 312.335938 108.785156 C 308.609375 108.351562 304.871094 108.027344 301.136719 107.707031 L 295.527344 107.324219 C 293.65625 107.203125 291.785156 107.140625 289.914062 107.042969 C 282.4375 106.738281 274.964844 106.667969 267.539062 106.921875 L 261.980469 107.175781 C 260.128906 107.289062 258.289062 107.441406 256.445312 107.566406 L 255.0625 107.667969 L 253.691406 107.800781 L 250.941406 108.066406 C 250.023438 108.160156 249.105469 108.234375 248.195312 108.339844 L 245.464844 108.683594 L 242.738281 109.023438 C 241.828125 109.128906 240.933594 109.296875 240.027344 109.429688 L 237.328125 109.847656 L 235.976562 110.054688 C 235.527344 110.125 235.082031 110.21875 234.636719 110.296875 L 229.292969 111.296875 L 224.019531 112.449219 C 223.132812 112.628906 222.273438 112.867188 221.40625 113.082031 L 218.804688 113.730469 C 217.054688 114.136719 215.363281 114.648438 213.652344 115.132812 L 211.09375 115.859375 C 210.246094 116.109375 209.410156 116.386719 208.566406 116.648438 C 206.878906 117.164062 205.214844 117.75 203.542969 118.308594 C 190.207031 122.910156 177.457031 128.789062 164.667969 134.964844 C 151.875 141.144531 139.003906 147.660156 125.1875 153.53125 C 122.546875 154.652344 119.867188 155.746094 117.152344 156.808594 C 125.332031 157.4375 133.542969 157.910156 141.773438 158.253906 L 149.582031 158.542969 L 157.40625 158.726562 C 160.015625 158.808594 162.628906 158.808594 165.238281 158.84375 L 169.160156 158.886719 C 170.464844 158.898438 171.773438 158.886719 173.082031 158.886719 C 183.539062 158.929688 194.019531 158.710938 204.507812 158.402344 C 214.992188 158.09375 225.492188 157.609375 235.996094 157.03125 C 246.503906 156.449219 257.015625 155.777344 267.535156 155.003906 C 288.578125 153.503906 309.644531 151.683594 330.777344 149.910156 C 351.90625 148.132812 373.097656 146.359375 394.375 144.925781 L 402.355469 144.398438 C 405.015625 144.21875 407.679688 144.054688 410.347656 143.894531 C 415.683594 143.585938 421.035156 143.3125 426.390625 143.066406 C 429.066406 142.941406 431.753906 142.851562 434.433594 142.742188 L 442.492188 142.488281 C 445.1875 142.441406 447.875 142.378906 450.570312 142.355469 L 454.613281 142.324219 C 455.957031 142.3125 457.304688 142.308594 458.65625 142.320312 C 461.351562 142.335938 464.046875 142.332031 466.746094 142.398438 L 470.792969 142.472656 C 472.140625 142.507812 473.492188 142.558594 474.839844 142.605469 L 478.886719 142.761719 L 482.929688 142.972656 C 485.625 143.09375 488.316406 143.304688 491.003906 143.492188 C 501.765625 144.265625 512.464844 145.566406 522.988281 147.40625 C 533.507812 149.28125 543.816406 151.75 553.714844 154.894531 C 563.605469 158.035156 573.109375 161.824219 581.882812 166.355469 C 562.917969 159.070312 542.46875 154.515625 521.742188 152.257812 C 500.976562 149.953125 479.929688 149.910156 458.992188 150.859375 C 457.683594 150.910156 456.371094 150.980469 455.0625 151.058594 L 451.132812 151.28125 C 448.515625 151.433594 445.898438 151.628906 443.28125 151.796875 L 435.425781 152.378906 C 432.804688 152.597656 430.1875 152.800781 427.570312 153.039062 C 422.332031 153.503906 417.097656 153.996094 411.851562 154.527344 C 406.609375 155.035156 401.359375 155.585938 396.113281 156.128906 C 375.128906 158.359375 354.140625 160.761719 333.085938 163.101562 C 290.984375 167.765625 248.527344 172.148438 205.460938 173.808594 C 183.941406 174.648438 162.285156 174.761719 140.617188 173.875 C 129.789062 173.398438 118.953125 172.734375 108.15625 171.71875 C 97.359375 170.699219 86.601562 169.390625 75.910156 167.789062 L 31.277344 161.109375 Z M 75.398438 152.839844 " fill-opacity="1" fill-rule="nonzero"/></g><g clip-path="url(#631c5fa708)"><path fill="#008037" d="M 193.828125 198.382812 C 177.195312 202.007812 160.328125 204.683594 143.375 206.234375 C 122.109375 208.179688 100.445312 208.453125 79.3125 205.050781 C 69.035156 203.394531 58.851562 200.832031 49.21875 196.855469 C 41.320312 193.59375 26.367188 188.292969 24.941406 178.496094 C 24.4375 175.023438 24.300781 169.773438 28.679688 167.0625 C 34.320312 163.574219 41.890625 167.09375 47.167969 169.09375 C 53.476562 171.484375 59.691406 174.027344 66.5 175.886719 C 75.007812 178.207031 83.804688 180.140625 92.695312 181.855469 C 102.710938 183.789062 112.910156 185.527344 123.210938 186.828125 C 118.125 187.667969 109.679688 188.804688 105.113281 189.375 C 99.648438 190.050781 94.15625 190.644531 88.636719 191.121094 C 82.832031 191.625 76.828125 192 70.824219 192.199219 C 97.546875 197.546875 143.0625 202.238281 209.246094 194.65625 C 204.046875 195.988281 198.851562 197.289062 193.828125 198.382812 Z M 193.828125 198.382812 " fill-opacity="1" fill-rule="nonzero"/></g><g clip-path="url(#97afa3416b)"><g clip-path="url(#500d86d121)"><g clip-path="url(#0531fe7504)"><path fill="#008037" d="M 524.121094 221.757812 C 523.566406 222.425781 522.945312 223.039062 522.34375 223.671875 C 522.042969 223.984375 521.714844 224.273438 521.402344 224.574219 C 521.082031 224.871094 520.769531 225.179688 520.433594 225.453125 C 515.191406 230.070312 508.601562 233.152344 501.667969 234.320312 C 494.734375 235.496094 487.441406 234.765625 480.855469 232.105469 C 479.214844 231.429688 477.597656 230.6875 476.0625 229.789062 L 475.480469 229.460938 C 475.289062 229.351562 475.105469 229.226562 474.914062 229.109375 L 473.789062 228.398438 L 472.695312 227.628906 L 472.148438 227.246094 L 471.625 226.835938 L 470.570312 226.011719 L 469.058594 224.699219 C 468.894531 224.550781 468.734375 224.390625 468.574219 224.238281 L 467.609375 223.3125 L 466.691406 222.335938 L 466.234375 221.847656 L 465.800781 221.339844 L 464.933594 220.316406 L 464.117188 219.25 C 459.820312 213.527344 457.140625 206.582031 456.46875 199.402344 C 455.78125 192.226562 457.113281 184.839844 460.3125 178.3125 L 460.925781 177.097656 L 461.59375 175.910156 C 461.707031 175.710938 461.8125 175.511719 461.933594 175.316406 L 462.296875 174.742188 C 462.542969 174.359375 462.777344 173.96875 463.035156 173.59375 C 463.5625 172.855469 464.0625 172.089844 464.640625 171.386719 C 464.925781 171.03125 465.195312 170.664062 465.492188 170.316406 L 466.386719 169.289062 C 468.796875 166.550781 471.621094 164.175781 474.699219 162.199219 C 477.777344 160.207031 481.160156 158.699219 484.667969 157.621094 C 485.105469 157.472656 485.554688 157.371094 485.996094 157.25 C 486.441406 157.136719 486.882812 157.007812 487.332031 156.910156 C 488.234375 156.734375 489.128906 156.515625 490.042969 156.398438 C 490.5 156.328125 490.953125 156.253906 491.410156 156.195312 C 491.734375 156.164062 492.042969 156.066406 492.332031 155.914062 C 510.476562 146.457031 535.503906 158.273438 540.5 184.125 C 540.578125 184.527344 540.117188 184.8125 539.796875 184.558594 C 534.382812 180.320312 526.738281 181.765625 517.902344 181.359375 C 508.535156 180.929688 497.828125 178.421875 487.003906 164.878906 C 486.960938 164.828125 486.921875 164.773438 486.882812 164.71875 C 486.457031 164.128906 486.878906 163.308594 487.601562 163.332031 C 488.367188 163.359375 489.132812 163.398438 489.898438 163.445312 C 491.824219 163.566406 493.75 163.746094 495.675781 163.976562 C 496.636719 164.089844 497.597656 164.21875 498.558594 164.355469 C 499.519531 164.492188 500.480469 164.644531 501.4375 164.804688 C 503.355469 165.125 505.261719 165.496094 507.160156 165.914062 C 509.0625 166.332031 510.949219 166.804688 512.820312 167.339844 C 514.691406 167.875 516.546875 168.476562 518.363281 169.183594 C 519.269531 169.535156 520.167969 169.914062 521.046875 170.335938 C 521.539062 170.566406 522.023438 170.8125 522.5 171.070312 C 522.558594 171.101562 522.605469 171.019531 522.554688 170.988281 C 522.09375 170.691406 521.628906 170.40625 521.152344 170.136719 C 520.300781 169.648438 519.425781 169.195312 518.539062 168.769531 C 516.769531 167.917969 514.945312 167.171875 513.101562 166.484375 C 511.257812 165.800781 509.386719 165.179688 507.503906 164.609375 C 505.617188 164.039062 503.71875 163.519531 501.804688 163.042969 C 500.847656 162.808594 499.886719 162.582031 498.925781 162.367188 C 497.960938 162.152344 496.996094 161.949219 496.027344 161.757812 C 494.710938 161.496094 493.386719 161.261719 492.058594 161.046875 L 491.941406 161.054688 C 491.535156 161.09375 491.136719 161.152344 490.734375 161.199219 C 489.925781 161.277344 489.132812 161.449219 488.332031 161.578125 C 487.933594 161.652344 487.539062 161.757812 487.144531 161.84375 C 486.75 161.9375 486.351562 162.011719 485.960938 162.132812 C 482.835938 162.996094 479.792969 164.234375 477.007812 165.925781 C 474.214844 167.601562 471.625 169.640625 469.386719 172.039062 L 468.550781 172.941406 C 468.277344 173.246094 468.023438 173.566406 467.757812 173.878906 C 467.214844 174.496094 466.746094 175.171875 466.246094 175.824219 C 466.007812 176.15625 465.785156 176.5 465.554688 176.839844 L 465.207031 177.351562 C 465.09375 177.519531 464.992188 177.699219 464.886719 177.875 L 464.25 178.929688 L 463.664062 180.011719 C 460.589844 185.828125 459.15625 192.527344 459.585938 199.15625 C 460.007812 205.78125 462.285156 212.308594 466.140625 217.78125 L 466.875 218.796875 L 467.65625 219.78125 L 468.050781 220.273438 L 468.464844 220.742188 L 469.300781 221.683594 L 470.183594 222.582031 C 470.328125 222.734375 470.472656 222.886719 470.625 223.03125 L 471.085938 223.457031 L 472.015625 224.3125 L 473.46875 225.519531 L 473.972656 225.898438 L 474.984375 226.65625 L 476.03125 227.359375 C 476.203125 227.476562 476.375 227.601562 476.554688 227.710938 L 477.097656 228.035156 C 478.523438 228.933594 480.039062 229.683594 481.578125 230.375 C 487.761719 233.089844 494.734375 234.019531 501.476562 233.082031 C 508.214844 232.152344 514.738281 229.359375 520.027344 224.976562 C 520.371094 224.714844 520.683594 224.425781 521.007812 224.140625 C 521.324219 223.851562 521.65625 223.578125 521.964844 223.277344 C 522.574219 222.675781 523.203125 222.089844 523.773438 221.441406 C 524.359375 220.816406 524.933594 220.171875 525.46875 219.5 C 526.011719 218.828125 526.53125 218.140625 527.023438 217.433594 C 529.003906 214.613281 530.597656 211.515625 531.738281 208.246094 C 530.695312 211.546875 529.191406 214.707031 527.28125 217.609375 C 526.808594 218.339844 526.304688 219.046875 525.777344 219.738281 C 525.257812 220.4375 524.695312 221.105469 524.121094 221.757812 " fill-opacity="1" fill-rule="nonzero"/></g></g></g></svg>